<?xml version="1.0" encoding="UTF-8"?>
<svg version="1.1" xmlns="http://www.w3.org/2000/svg" width="3100" height="650">
<path d="M0 0 C0.66158313 -0.00436032 1.32316626 -0.00872064 2.00479737 -0.0132131 C4.23149847 -0.02420006 6.45758431 -0.01373181 8.68428135 -0.00342751 C10.29284548 -0.00688273 11.90140725 -0.01164638 13.50996405 -0.01760924 C17.93795148 -0.0301677 22.3657457 -0.02392689 26.79373395 -0.01465058 C31.56614186 -0.00788016 36.33851586 -0.01833137 41.11091709 -0.02659035 C50.46340077 -0.03995167 59.81581235 -0.03703919 69.16829889 -0.02835242 C76.76780521 -0.02158531 84.36729127 -0.02065494 91.96679974 -0.02392387 C93.5874077 -0.02461342 93.5874077 -0.02461342 95.24075522 -0.0253169 C97.43539043 -0.02627605 99.63002564 -0.02724869 101.82466085 -0.02823468 C122.41899303 -0.0367957 143.0132852 -0.02694348 163.60761083 -0.01083358 C181.28761175 0.00256835 198.96755359 0.00024392 216.64755344 -0.01358986 C237.16517455 -0.02963636 257.68276055 -0.03596966 278.20038706 -0.02675307 C280.38738667 -0.02579739 282.57438629 -0.02485428 284.76138592 -0.02392387 C286.37556516 -0.02322963 286.37556516 -0.02322963 288.02235408 -0.02252137 C295.61431179 -0.01992855 303.20624729 -0.0243088 310.79820156 -0.03136253 C320.04808449 -0.03976749 329.29789103 -0.03751864 338.54776519 -0.0215203 C343.26935147 -0.01362376 347.99081027 -0.01056947 352.71239567 -0.02046776 C357.03209103 -0.0293867 361.35154039 -0.02452821 365.67121334 -0.0085351 C367.23644581 -0.00517536 368.80169893 -0.00690804 370.3669182 -0.01416247 C372.49029671 -0.02325123 374.61282646 -0.01396366 376.73616028 0 C378.50715109 0.00073059 378.50715109 0.00073059 380.31391948 0.00147593 C383.78986151 0.42081671 385.64519987 1.29041523 388.43100071 3.37752342 C391.08535485 7.3132899 391.78273574 10.63304452 391.92709446 15.25252342 C390.53502954 21.21538419 385.36397004 25.72177676 381.15496922 29.87387657 C380.52817914 30.5002588 379.90138906 31.12664103 379.25560534 31.77200454 C377.16301946 33.86087245 375.06338134 35.94250252 372.96371555 38.02425194 C371.45854879 39.52394104 369.95384546 41.02409539 368.44957066 42.52467918 C365.21392254 45.75062759 361.97524294 48.97349042 358.73423481 52.19405365 C353.61110941 57.28534514 348.49616956 62.38480655 343.38256931 67.48566246 C330.68290311 80.1512579 317.97392609 92.80749961 305.26016331 105.45894432 C295.37399654 115.29668709 285.49101369 125.13757561 275.6185385 134.98906082 C270.53408626 140.06197793 265.44276314 145.12786589 260.34621882 150.18863308 C257.1805606 153.3351258 254.02114921 156.48783293 250.8634634 159.64232445 C249.39628976 161.1054728 247.92652553 162.56602864 246.45401669 164.02380753 C244.44672405 166.01173774 242.4488506 168.0086813 240.45306492 170.00815392 C239.86630399 170.58481208 239.27954306 171.16147024 238.6750015 171.7556029 C235.70474662 174.75219813 233.53772637 177.26300775 232.43100071 181.37752342 C232.63456814 186.26314185 234.10142179 188.84615185 237.43100071 192.37752342 C240.05601557 193.69003085 242.00521465 193.51119919 244.94607639 193.52228355 C246.11813633 193.52918205 247.29019627 193.53608055 248.49777317 193.5431881 C249.79025974 193.54580147 251.08274632 193.54841484 252.41439915 193.55110741 C253.784254 193.5574113 255.15410679 193.56417691 256.52395725 193.57137108 C259.47813331 193.58605461 262.43230138 193.59777397 265.38649845 193.60731888 C270.05943109 193.62275807 274.73229573 193.64670827 279.40518284 193.67221642 C292.69466956 193.74345056 305.98419557 193.80315836 319.27377415 193.85433006 C326.61029431 193.88265487 333.94674715 193.91804983 341.28319669 193.96098381 C345.9262829 193.98772847 350.56929293 194.005651 355.21244097 194.01702106 C358.10592255 194.02616417 360.9993119 194.04353446 363.8927393 194.0632 C365.86917173 194.07420604 367.84565112 194.07542359 369.82211399 194.07633018 C371.59712284 194.09090767 371.59712284 194.09090767 373.40799046 194.10577965 C374.94441008 194.11212756 374.94441008 194.11212756 376.51186848 194.11860371 C382.79871191 194.67623097 386.29427212 196.64983361 390.43100071 201.37752342 C392.02285625 204.56123451 392.05117385 207.93527802 391.43100071 211.37752342 C388.66347314 216.86305133 385.38484049 220.8517652 381.0337925 225.14946175 C380.39078147 225.79653349 379.74777045 226.44360524 379.08527425 227.11028522 C376.92900975 229.27649467 374.76222173 231.43185579 372.59532261 233.58742332 C371.03149685 235.15398968 369.46832728 236.72121132 367.90575832 238.28903127 C363.60999043 242.59539461 359.30490502 246.89233667 354.99824035 251.18779874 C350.83223933 255.34587249 346.67328869 259.5109783 342.51412562 263.67589005 C333.48272698 272.71921251 324.44284378 281.75401553 315.39942323 290.78531416 C307.4863654 298.68783729 299.57631038 306.59335133 291.66920376 314.50182915 C290.88256649 315.28859246 290.88256649 315.28859246 290.08003755 316.09124999 C287.95126784 318.22037195 285.82251401 320.34950979 283.69378284 322.47867028 C263.72483352 342.45158467 243.74755293 362.41614678 223.76623751 382.37668905 C206.00967069 400.11488238 188.25939681 417.85934849 170.51474094 435.60945702 C169.37515181 436.74939259 168.2355625 437.88932799 167.09597302 439.02926323 C166.53258424 439.592823 165.96919546 440.15638278 165.38873429 440.73702012 C162.55277154 443.5738364 159.71679392 446.41063781 156.88080025 449.24742317 C156.3213154 449.8070651 155.76183055 450.36670703 155.18539162 450.9433078 C140.36133669 465.77135133 125.5325524 480.59466355 110.70225185 495.41646028 C109.10683728 497.0109678 107.51142341 498.60547602 105.9160111 500.1999858 C104.85763895 501.25775683 103.79926306 502.31552411 102.74088338 503.37328761 C95.35841608 510.75153132 87.97777492 518.13159735 80.59837131 525.51290517 C71.0903668 535.02335091 61.57912377 544.53053772 52.06210393 554.03196254 C47.47172101 558.61508785 42.88295518 563.19980195 38.29847622 567.78883362 C34.10528946 571.98608326 29.90754384 576.17871552 25.70604228 580.36764148 C24.18347903 581.88726597 22.66261215 583.40859232 21.14358015 584.93174669 C19.08496301 586.99544449 17.0203409 589.05293948 14.95405006 591.10894966 C14.3602816 591.70711461 13.76651314 592.30527956 13.15475169 592.92157072 C8.82109303 597.21401864 4.93857321 600.78708638 -1.44399929 600.94002342 C-6.33403392 600.80845298 -8.80682346 599.30383215 -12.29165554 595.98299217 C-14.48164312 593.23043897 -14.69435187 590.66074788 -14.69780046 587.28003091 C-14.70107265 586.44057757 -14.70434485 585.60112423 -14.7077162 584.73623291 C-14.70623257 583.81209999 -14.70474895 582.88796706 -14.70322037 581.93583012 C-14.7055726 580.95153268 -14.70792483 579.96723524 -14.71034834 578.95311061 C-14.71705675 575.62278416 -14.71657956 572.29249657 -14.71617031 568.96216393 C-14.71946778 566.5632165 -14.72319309 564.16426962 -14.72731179 561.76532346 C-14.73629823 555.84309759 -14.74056152 549.92087876 -14.74283076 543.99864753 C-14.74579017 536.90774244 -14.75448598 529.8168473 -14.76324504 522.72594743 C-14.78409995 505.58647713 -14.79456043 488.4470051 -14.80337464 471.30752507 C-14.8075792 463.20258051 -14.81280141 455.09763669 -14.81805917 446.99269275 C-14.83594925 419.25908723 -14.85094662 391.5254815 -14.85837936 363.79187107 C-14.85885412 362.05042156 -14.85933001 360.30897205 -14.85980703 358.56752254 C-14.8600434 357.70390548 -14.86027978 356.84028841 -14.86052332 355.95050113 C-14.86172454 351.57485686 -14.86293998 347.1992126 -14.86416531 342.82356834 C-14.86440546 341.95520311 -14.86464561 341.08683788 -14.86489303 340.19215854 C-14.87278919 312.02607313 -14.89622759 283.86002978 -14.92872125 255.69396274 C-14.96299763 225.92838141 -14.98272841 196.1628247 -14.9860236 166.39722329 C-14.98644116 163.13144862 -14.98692072 159.86567395 -14.98744678 156.59989929 C-14.98763157 155.39367498 -14.98763157 155.39367498 -14.98782009 154.1630825 C-14.99015472 141.20718561 -15.00582918 128.25133748 -15.02628863 115.29545798 C-15.04651654 102.28001454 -15.05203833 89.26462985 -15.042518 76.2491736 C-15.03729136 68.51186843 -15.04323511 60.77475844 -15.06505267 53.03748124 C-15.08009725 47.26726675 -15.07435726 41.49722484 -15.06038215 35.72701458 C-15.05798799 33.38717116 -15.06242221 31.04730922 -15.0742108 28.70749428 C-15.08920119 25.53690289 -15.07974594 22.36730573 -15.06398392 19.19674015 C-15.07420612 18.27963073 -15.08442833 17.36252131 -15.0949603 16.41762069 C-15.02348517 9.86983819 -13.4335995 6.26076051 -8.72956175 1.52611864 C-5.72956176 -0.06873719 -3.39168513 0.00139936 0 0 Z M129.29769993 81.4068203 C121.11070453 81.46406064 112.92426115 81.54033578 104.73770237 81.64299583 C102.12133877 81.67429049 99.5049165 81.70102036 96.88845921 81.72313499 C93.22259503 81.75621323 89.55749128 81.80838053 85.89193821 81.86580467 C84.25654087 81.87541222 84.25654087 81.87541222 82.5881052 81.88521385 C75.44219885 81.8965349 75.44219885 81.8965349 69.43100071 85.37752342 C64.78215351 90.76837466 64.86387378 95.39658399 64.92929173 102.3365078 C64.92388874 103.42989967 64.91848576 104.52329155 64.91291904 105.64981651 C64.90043118 109.25724576 64.9169242 112.86387705 64.93490696 116.47127342 C64.93475197 118.98181258 64.93326307 121.49235199 64.93049717 124.00288963 C64.92911315 129.26180779 64.94123679 134.52051993 64.96444798 139.77937889 C64.9910555 145.84954522 64.99280349 151.91932924 64.98105961 157.9895339 C64.97026053 163.84151396 64.97658755 169.69335496 64.99061489 175.54532433 C64.99512911 178.03001059 64.99546646 180.51470809 64.99154949 182.99939537 C64.98863714 186.4726772 65.00514658 189.94533597 65.02694798 193.41853905 C65.02244633 194.44417458 65.01794468 195.4698101 65.01330662 196.5265255 C65.07841278 202.77363906 65.67970602 207.42242913 70.11850071 212.19002342 C73.42094588 213.88587365 76.74809413 214.84280166 80.43100071 214.37752342 C84.52728427 211.87812385 87.92677176 209.13253807 91.31509495 205.74739647 C92.24600956 204.82212151 93.17692417 203.89684654 94.13604832 202.94353294 C95.15015688 201.92553662 96.16416099 200.90743623 97.17807102 199.88924217 C98.25902797 198.81099789 99.34040936 197.73317897 100.42218113 196.65575218 C103.34803817 193.73898644 106.26756535 190.81596173 109.18570137 187.89147377 C112.24337176 184.82872912 115.30593103 181.77087929 118.36770725 178.71224022 C123.50568923 173.57789262 128.63944905 168.43935166 133.77084446 163.29842186 C139.70314644 157.35522477 145.64263464 151.41928252 151.58588433 145.4870348 C156.69201603 140.38997719 161.79424226 135.28903477 166.89322066 130.18482113 C169.93720879 127.13771547 172.98253095 124.09197612 176.03138065 121.04973412 C178.89558466 118.19130509 181.75485624 115.32803225 184.61038685 112.46093941 C185.65919495 111.40948605 186.70971015 110.35973233 187.76204395 109.31180763 C189.19759912 107.88171405 190.6264007 106.4448506 192.05484104 105.00765038 C193.25715303 103.80420731 193.25715303 103.80420731 194.48375416 102.57645226 C197.6592361 98.99053819 198.46018492 97.296826 198.30600071 92.44002342 C197.67209633 88.48180654 196.39240699 86.17440713 193.43100071 83.37752342 C188.56399766 80.63916172 183.40505283 81.10802519 177.98568821 81.14705467 C176.93103367 81.14701439 175.87637913 81.14697411 174.78976536 81.1469326 C171.29505542 81.15035543 167.80064849 81.16935116 164.30600071 81.19002342 C161.86931529 81.19894638 159.43262906 81.20765058 156.99594212 81.21614647 C149.82165287 81.24695801 142.647637 81.30158157 135.47354221 81.361166 C133.41493534 81.37765208 131.35632302 81.39251041 129.29769993 81.4068203 Z " fill="#051111" transform="translate(64.56899929046631,30.62247657775879)"/>
<path d="M0 0 C2.7302742 -0.37752342 2.7302742 -0.37752342 6.28057861 -0.38095093 C6.93238405 -0.3856309 7.58418949 -0.39031087 8.2557466 -0.39513266 C10.45097516 -0.40714566 12.64558657 -0.39760054 14.84082031 -0.38818359 C16.41131455 -0.39224731 17.98180593 -0.39758806 19.55229187 -0.40411377 C23.83251042 -0.41783951 28.11251295 -0.41246127 32.39273548 -0.40297651 C36.88680923 -0.39538035 41.38086448 -0.40242788 45.87493896 -0.40713501 C53.44449162 -0.41260393 61.01395673 -0.40538297 68.58349609 -0.39111328 C77.2820948 -0.37490234 85.98048127 -0.37998567 94.67907453 -0.3965925 C102.17240856 -0.41031688 109.66567951 -0.41207065 117.15902209 -0.40427649 C121.62209448 -0.39964428 126.08506816 -0.39884773 130.54813385 -0.40888596 C170.66627386 -0.4866198 211.88515037 2.15457535 242.4765625 31.35546875 C264.59120267 54.53133778 271.06668528 85.71813586 270.33984375 116.81640625 C269.40139374 138.75476258 260.08048288 157.59987149 244.25 172.6875 C234.66919691 180.98199157 223.34885261 186.55527311 212 192 C211.771965 194.40059127 211.771965 194.40059127 213 197 C215.8831258 198.72077173 219.02467585 199.71522285 222.1875 200.8125 C245.04583544 209.40186476 261.25780352 222.16810628 272.3125 244.25 C281.16260889 264.95777568 281.5125512 288.29704252 276 310 C275.83371094 310.66257812 275.66742187 311.32515625 275.49609375 312.0078125 C268.55737067 338.63194993 252.78988965 360.99963797 229.23828125 375.33984375 C211.18121825 385.79054909 190.58648751 391.37657842 170 394 C169.37066716 394.08124587 168.74133432 394.16249174 168.09293079 394.24619961 C151.20148387 396.34277227 134.30733373 396.31291174 117.31887698 396.30158257 C114.09223642 396.3004986 110.86561493 396.30543017 107.63897854 396.310188 C100.03607797 396.32118545 92.43322689 396.32177116 84.83032227 396.31567383 C77.00063714 396.30959183 69.17112979 396.32207343 61.34147495 396.3432439 C54.5843455 396.36083858 47.82727287 396.3668661 41.07012135 396.36360615 C37.04831472 396.36179556 33.02663609 396.36441058 29.00485039 396.37832069 C25.23956567 396.39086571 21.47456217 396.38898699 17.70928192 396.37590981 C16.32898171 396.37354019 14.94866182 396.37629251 13.56838417 396.38453293 C11.68574684 396.39496458 9.8030296 396.38511706 7.9203949 396.3742218 C6.86732871 396.37438954 5.81426252 396.37455729 4.72928524 396.37473011 C1.47824888 395.92836372 0.30233977 395.32618534 -2 393 C-2.49909532 390.1301651 -2.49909532 390.1301651 -2.49777794 386.54846191 C-2.50559979 385.55691919 -2.50559979 385.55691919 -2.51357967 384.54534531 C-2.52624479 382.31435388 -2.5102163 380.08447466 -2.49447632 377.85351562 C-2.49765077 376.24438813 -2.50257625 374.6352633 -2.50910914 373.02614594 C-2.52197694 368.59197302 -2.5097689 364.15816343 -2.49358058 359.72401428 C-2.48045716 354.94685672 -2.49031683 350.16974081 -2.49734497 345.39257812 C-2.50744353 336.02923548 -2.49612754 326.66603377 -2.47764437 317.30270863 C-2.45690788 306.40748774 -2.45701591 295.51229758 -2.45798953 284.61706066 C-2.4589915 265.18217728 -2.44064799 245.74735965 -2.41162109 226.3125 C-2.38344479 207.43748781 -2.36927949 188.56253351 -2.37060547 169.6875 C-2.37068538 168.5250561 -2.37076529 167.36261221 -2.37084763 166.16494274 C-2.37092834 165.00454385 -2.37100905 163.84414495 -2.3710922 162.64858246 C-2.37247078 141.1844054 -2.36069809 119.72025303 -2.34278577 98.25608397 C-2.33674457 90.65468995 -2.33462564 83.05330045 -2.33372116 75.4519043 C-2.33235894 66.19316511 -2.32345826 56.9344675 -2.30505554 47.67574596 C-2.29580137 42.94836689 -2.28973523 38.2210411 -2.29224396 33.49365234 C-2.29442673 29.17097961 -2.28744228 24.84842495 -2.27294691 20.52577686 C-2.26930685 18.9571871 -2.26907261 17.38858521 -2.27248149 15.81999493 C-2.27658621 13.69703401 -2.26852884 11.57446477 -2.25726891 9.45153809 C-2.25586006 8.26957603 -2.25445121 7.08761398 -2.25299966 5.8698349 C-2 3 -2 3 0 0 Z M72 67 C71.79067249 69.93606729 71.70636799 72.77855545 71.70947266 75.71655273 C71.70275543 76.61910797 71.69603821 77.52166321 71.68911743 78.4515686 C71.67006446 81.44563244 71.66620965 84.43947301 71.6640625 87.43359375 C71.65763992 89.50863234 71.65091198 91.58367001 71.64389038 93.65870667 C71.63189953 98.01248271 71.62821144 102.3661793 71.62939453 106.7199707 C71.62959788 112.30690565 71.60228666 117.89333285 71.56785011 123.48014736 C71.54564541 127.76689508 71.541555 132.05351933 71.54261398 136.34031868 C71.54024866 138.40047011 71.53137314 140.46062448 71.51594925 142.52071953 C71.496418 145.39886215 71.50207634 148.27589335 71.51416016 151.15405273 C71.50292114 152.0097435 71.49168213 152.86543427 71.48010254 153.74705505 C71.5037158 158.22532793 71.5037158 158.22532793 73.62573242 162.02960205 C76.70654076 163.28877356 79.14183508 163.37412742 82.47412109 163.37231445 C84.44800308 163.38165764 84.44800308 163.38165764 86.46176147 163.39118958 C87.89899061 163.38249221 89.33621609 163.37317321 90.7734375 163.36328125 C92.25875854 163.36276191 93.74408027 163.36328246 95.22940063 163.36479187 C98.34818751 163.36470214 101.46671601 163.35428295 104.58544922 163.33618164 C108.54344946 163.31369186 112.5010659 163.31291432 116.45911217 163.31969929 C119.53247358 163.32307879 122.6057509 163.31633213 125.67909622 163.30657005 C127.13563214 163.30277091 128.59217752 163.30154738 130.0487175 163.3031559 C148.29078243 163.30651923 166.8141121 161.97960809 180.93359375 149.2578125 C191.30756353 138.50457931 192.39231556 125.22014691 192.21484375 111.1015625 C191.84166277 98.53393981 188.05659605 86.05659605 179 77 C164.82291859 65.97953437 150.62973189 64.68582915 133.25 64.734375 C131.54272405 64.73302572 129.83544847 64.731083 128.12817383 64.72857666 C124.5712514 64.72564416 121.01443012 64.72986659 117.45751953 64.73925781 C112.89319944 64.75072107 108.32911281 64.74403798 103.76480103 64.73211288 C100.24931053 64.72490267 96.73387592 64.72717712 93.21838379 64.73236847 C91.5342201 64.7337037 89.85005135 64.73206165 88.16589355 64.72740936 C85.82269704 64.72235033 83.47988637 64.73004207 81.13671875 64.74121094 C80.43961288 64.73716248 79.74250702 64.73311401 79.02427673 64.72894287 C75.06919281 64.66476949 75.06919281 64.66476949 72 67 Z M72 226 C71.6971937 227.91596137 71.6971937 227.91596137 71.74603271 230.1373291 C71.74039307 231.00384598 71.73475342 231.87036285 71.72894287 232.76313782 C71.73299133 233.71593124 71.73703979 234.66872467 71.74121094 235.65039062 C71.7377063 236.65208786 71.73420166 237.6537851 71.73059082 238.68583679 C71.72176129 242.00937758 71.72762701 245.3327069 71.734375 248.65625 C71.7330287 250.95788616 71.73108847 253.25952204 71.72857666 255.56115723 C71.72562374 260.38992006 71.72992847 265.21860902 71.73925781 270.04736328 C71.75065239 276.24855683 71.74409382 282.44957727 71.73211288 288.65076447 C71.72489884 293.40498162 71.72718012 298.15915748 71.73236847 302.91337585 C71.73370623 305.20041423 71.73205286 307.48745631 71.72740936 309.77449036 C71.72235164 312.96629827 71.73004383 316.15782267 71.74121094 319.34960938 C71.73716248 320.3024028 71.73311401 321.25519623 71.72894287 322.23686218 C71.73458252 323.10337906 71.74022217 323.96989594 71.74603271 324.8626709 C71.74678677 325.61778709 71.74754082 326.37290329 71.74831772 327.15090179 C71.8436494 329.24716997 71.8436494 329.24716997 74 331 C76.60117605 331.20898698 79.09677602 331.29365365 81.69995117 331.29052734 C82.89319756 331.30060318 82.89319756 331.30060318 84.11054993 331.31088257 C86.75475241 331.32995615 89.39870161 331.33379354 92.04296875 331.3359375 C93.88747766 331.34236647 95.73198554 331.34909491 97.57649231 331.35610962 C101.45621089 331.368111 105.33584033 331.37178826 109.21557617 331.37060547 C114.14893671 331.37040383 119.08171103 331.39753056 124.01493359 331.43214989 C127.83379139 331.45458838 131.6525129 331.45843763 135.47142982 331.45738602 C137.28721418 331.45972333 139.1030034 331.46843944 140.91872215 331.48405075 C157.96397052 331.61669551 173.72200769 329.79690616 186.8125 317.6875 C195.3775524 308.45895762 199.49626213 295.44013534 200 283 C200.03996094 282.1853125 200.07992187 281.370625 200.12109375 280.53125 C200.51434031 264.80138742 198.11633872 247.90647064 187 236 C178.4423188 227.34140275 168.31707535 223.81865097 156.25437927 223.72894287 C155.05930504 223.73501556 155.05930504 223.73501556 153.84008789 223.74121094 C152.97391846 223.7377063 152.10774902 223.73420166 151.21533203 223.73059082 C148.38435594 223.72186714 145.55363437 223.72758561 142.72265625 223.734375 C140.74490817 223.73302652 138.76716041 223.73108446 136.78941345 223.72857666 C132.66157855 223.72563885 128.53383061 223.72988293 124.40600586 223.73925781 C119.10741112 223.75070407 113.80901785 223.74405184 108.51043034 223.73211288 C104.43477342 223.72490259 100.35916472 223.72717747 96.28350639 223.73236847 C94.32860732 223.73370456 92.3737039 223.73205866 90.41880989 223.72740936 C87.6971376 223.72235209 84.97579779 223.7300406 82.25415039 223.74121094 C81.44326462 223.73716248 80.63237885 223.73311401 79.79692078 223.72894287 C75.43134898 223.59135942 75.43134898 223.59135942 72 226 Z " fill="#061111" transform="translate(557,133)"/>
<path d="M0 0 C1.23137695 -0.00945648 2.46275391 -0.01891296 3.73144531 -0.02865601 C5.07617514 -0.0232863 6.42090204 -0.01713334 7.765625 -0.01025391 C9.1442073 -0.01227487 10.52278855 -0.0151865 11.90136719 -0.01895142 C14.78981714 -0.02337375 17.67798867 -0.01694699 20.56640625 -0.00292969 C24.26892254 0.01416261 27.97078646 0.00432088 31.67327881 -0.01364708 C34.51974402 -0.02448762 37.36605455 -0.02103744 40.21252441 -0.0132637 C41.57767819 -0.01126242 42.94284602 -0.01371849 44.3079834 -0.02070236 C46.2157362 -0.02832031 48.12353824 -0.01465046 50.03125 0 C51.65981934 0.00358017 51.65981934 0.00358017 53.32128906 0.00723267 C56.015625 0.38818359 56.015625 0.38818359 57.85887146 1.78512573 C59.33194436 3.82654685 59.4938707 5.23020014 59.67578125 7.73193359 C59.74732422 8.56595703 59.81886719 9.39998047 59.89257812 10.25927734 C59.98442383 11.56058594 59.98442383 11.56058594 60.078125 12.88818359 C60.20713978 14.60752904 60.34355768 16.32633911 60.48828125 18.04443359 C60.54250244 18.805625 60.59672363 19.56681641 60.65258789 20.35107422 C60.92975779 22.69284057 60.92975779 22.69284057 63.015625 25.38818359 C66.61597009 25.13699673 67.87577622 24.52626493 70.48828125 21.94677734 C71.35801993 20.91180507 72.22097062 19.87110186 73.078125 18.82568359 C82.30242444 8.25846705 93.6893211 1.01843274 108.00732422 0.0234375 C112.34515442 -0.16020219 116.67561908 -0.12039872 121.015625 -0.04931641 C121.78331207 -0.04249847 122.55099915 -0.03568054 123.34194946 -0.02865601 C155.48928207 0.26665686 186.18265399 6.95071622 209.61279297 30.49267578 C215.04509396 36.20811063 219.11048857 42.56783554 223.015625 49.38818359 C223.56863281 50.34080078 224.12164063 51.29341797 224.69140625 52.27490234 C239.45883832 79.63471835 240.20292165 111.85403775 240.20092773 142.16162109 C240.20310357 145.85184456 240.22128139 149.54176317 240.24023438 153.23193359 C240.32923084 190.2164763 237.38297194 231.68700369 211.015625 260.38818359 C210.27957031 261.21576172 209.54351563 262.04333984 208.78515625 262.89599609 C188.64065504 284.38784568 159.0309586 291.47926186 130.50146484 292.51586914 C126.67212452 292.59451238 122.84576323 292.62880002 119.015625 292.63818359 C117.98829758 292.64168823 117.98829758 292.64168823 116.94021606 292.64526367 C104.39652179 292.66121496 92.15130164 291.61305325 79.69921875 290.04443359 C75.41937551 289.51511205 71.32419886 289.14646837 67.015625 289.38818359 C65.46090351 290.94290509 65.8845804 292.42469084 65.87759399 294.58834839 C65.87214066 295.49411621 65.86668732 296.39988403 65.86106873 297.33309937 C65.8600264 298.33467072 65.85898407 299.33624207 65.85791016 300.36816406 C65.85282944 301.41687683 65.84774872 302.4655896 65.84251404 303.54608154 C65.83178401 305.83183827 65.82317424 308.11760568 65.81639481 310.40337753 C65.80465013 314.0168694 65.78520931 317.63023934 65.76327515 321.24368286 C65.70150664 331.52048713 65.6475639 341.7972798 65.61425781 352.07421875 C65.59336043 358.35187237 65.55809548 364.6293056 65.51350021 370.90683365 C65.49929882 373.30466245 65.4906085 375.70253025 65.48744583 378.10039902 C65.4825598 381.45030666 65.45946084 384.79962527 65.43212891 388.14941406 C65.43663811 389.64569839 65.43663811 389.64569839 65.4412384 391.17221069 C65.42459892 392.5393219 65.42459892 392.5393219 65.40762329 393.93405151 C65.40431314 394.72641645 65.401003 395.51878139 65.39759254 396.33515739 C64.91484652 398.92985488 64.10913651 399.81891815 62.015625 401.38818359 C59.04881287 401.7624054 59.04881287 401.7624054 55.37280273 401.76049805 C54.70258087 401.76414871 54.03235901 401.76779938 53.34182739 401.77156067 C51.12736645 401.77966419 48.91363765 401.76606 46.69921875 401.75146484 C45.16130066 401.75094627 43.62338191 401.75146386 42.08546448 401.75297546 C38.86327207 401.75288575 35.64132994 401.74245792 32.41918945 401.72436523 C28.28398626 401.70165888 24.1491482 401.70113746 20.0138998 401.70788288 C16.83894084 401.71122 13.66406551 401.70459799 10.48912239 401.69475365 C8.96405538 401.69089833 7.43897907 401.6897548 5.913908 401.69133949 C3.78544164 401.6917093 1.65744822 401.67911491 -0.47094727 401.6628418 C-1.68323502 401.65823441 -2.89552277 401.65362701 -4.14454651 401.64888 C-6.984375 401.38818359 -6.984375 401.38818359 -8.984375 399.38818359 C-9.236224 396.60407501 -9.236224 396.60407501 -9.23885059 392.96598911 C-9.24205707 392.29598423 -9.24526355 391.62597936 -9.24856719 390.9356713 C-9.25693364 388.66841943 -9.25091997 386.40142719 -9.24507141 384.13417053 C-9.24808908 382.50115977 -9.25197661 380.86815042 -9.25666398 379.2351436 C-9.26700241 374.73040679 -9.26474739 370.22574904 -9.26048338 365.72100556 C-9.2580267 360.86953174 -9.26701709 356.01807748 -9.27452087 351.16661072 C-9.28729944 341.65545384 -9.28905765 332.14432515 -9.28672061 322.63316114 C-9.28494083 314.90582754 -9.28667978 307.17850253 -9.29094505 299.45116997 C-9.29183784 297.80431111 -9.29183784 297.80431111 -9.29274866 296.12418238 C-9.29396035 293.89411064 -9.29517448 291.6640389 -9.29639103 289.43396717 C-9.30727872 268.49921328 -9.30509826 247.56447548 -9.29900619 226.62972068 C-9.2938358 207.4586033 -9.3050935 188.28753672 -9.32410441 169.1164294 C-9.34345472 149.45300099 -9.35174376 129.78959665 -9.34798115 110.12615865 C-9.34606485 99.07803167 -9.34859826 88.02994793 -9.36269569 76.98182869 C-9.37457477 67.57667081 -9.3760536 58.17158279 -9.36390553 48.76642401 C-9.35799234 43.96408612 -9.3569843 39.16187623 -9.36890793 34.35954666 C-9.37968446 29.96833343 -9.37676257 25.57735633 -9.36264624 21.18615454 C-9.35997643 19.59263192 -9.3624366 17.99909129 -9.37038211 16.40558625 C-9.38039447 14.2488404 -9.37214808 12.09293036 -9.35910511 9.93621922 C-9.35916013 8.73548852 -9.35921514 7.53475782 -9.35927182 6.29764134 C-8.984375 3.38818359 -8.984375 3.38818359 -7.62935036 1.5027408 C-5.1181556 -0.19872555 -3.00638446 0.00660909 0 0 Z M84.67578125 79.02099609 C82.40448413 81.7728389 80.20747885 84.57266081 78.015625 87.38818359 C76.95542812 88.70904593 75.89277084 90.02793584 74.828125 91.34521484 C73.72381999 92.71359279 72.61965236 94.08208163 71.515625 95.45068359 C70.98646484 96.10649414 70.45730469 96.76230469 69.91210938 97.43798828 C66.48138673 101.72077114 64.89565196 103.79737895 64.86172485 109.24009705 C64.85312439 110.26503769 64.84452393 111.28997833 64.83566284 112.34597778 C64.83140289 113.4748642 64.82714294 114.60375061 64.82275391 115.7668457 C64.81457642 116.95225449 64.80639893 118.13766327 64.79797363 119.35899353 C64.77309317 123.29449108 64.75644995 127.22998116 64.7421875 131.16552734 C64.73682815 132.51946075 64.73145065 133.87339408 64.72605515 135.22732735 C64.70443031 140.85737021 64.68569172 146.48741021 64.67443275 152.11748409 C64.6581795 160.19218101 64.62496485 168.26639782 64.56803191 176.34091371 C64.52937943 182.01568872 64.50980589 187.69033503 64.50451219 193.36523825 C64.50085308 196.75645073 64.4887739 200.14715107 64.45640945 203.53822136 C64.42498455 207.31923343 64.42468739 211.09901999 64.43212891 214.88012695 C64.41572357 216.00698914 64.39931824 217.13385132 64.38241577 218.29486084 C64.40498394 221.08319143 64.46059494 223.65596719 65.015625 226.38818359 C68.53591643 229.67491932 72.8630204 230.21662872 77.515625 231.01318359 C78.8046875 231.25294922 80.09375 231.49271484 81.421875 231.73974609 C92.30377998 233.42022103 103.27720775 233.57015622 114.265625 233.57568359 C115.56242187 233.58792969 116.85921875 233.60017578 118.1953125 233.61279297 C130.82750544 233.63208858 140.92126553 232.04190312 150.640625 223.45068359 C164.7831752 208.19247978 166.1663684 184.98270812 166.21875 165.36474609 C166.22157738 164.64433514 166.22440475 163.92392418 166.22731781 163.18168259 C166.24225112 159.36135248 166.25151483 155.54105949 166.25585938 151.72070312 C166.26022697 148.60014035 166.27405942 145.47985671 166.296875 142.359375 C166.97925884 103.48772436 166.97925884 103.48772436 149.640625 69.63818359 C138.19250398 59.82550844 126.00504264 59.44311875 111.46679688 60.16748047 C100.35170322 61.16828173 91.74319051 71.06868584 84.67578125 79.02099609 Z " fill="#061111" transform="translate(1932.984375,235.61181640625)"/>
<path d="M0 0 C1.85134125 1.46301079 1.85134125 1.46301079 3 4 C3.28857637 6.93553324 3.40322354 9.65710812 3.37854004 12.59182739 C3.38307017 13.46771417 3.3876003 14.34360094 3.3922677 15.24602973 C3.40391257 18.18646829 3.39423634 21.12645378 3.38476562 24.06689453 C3.38886967 26.17259007 3.39432955 28.27828334 3.40104675 30.38397217 C3.41278306 34.92059021 3.41525211 39.45708656 3.41069031 43.99371719 C3.40389514 51.16090384 3.4197227 58.32792953 3.43908691 65.49508667 C3.48020432 82.0002212 3.49150074 98.50535148 3.50261688 115.01052856 C3.51311094 130.1408779 3.52981205 145.27115027 3.57071257 160.40145195 C3.5891263 167.53282512 3.59294087 174.66401523 3.58577728 181.79540658 C3.58426103 186.22265999 3.59500344 190.64982085 3.60915565 195.07704926 C3.61317583 197.13705726 3.61200372 199.1970826 3.60538292 201.25708389 C3.59706608 204.05899803 3.60691672 206.86026533 3.62145996 209.66213989 C3.61456603 210.48624867 3.60767209 211.31035744 3.60056925 212.15943921 C3.59024398 214.64719192 3.59024398 214.64719192 4 218 C6.85464192 220.27611191 6.85464192 220.27611191 10.27734375 220.1484375 C15.68431536 218.48038959 17.48595269 215.19515564 20.5625 210.625 C21.7924205 208.87721823 23.02290491 207.12983317 24.25390625 205.3828125 C24.87539551 204.48594727 25.49688477 203.58908203 26.13720703 202.66503906 C29.01258139 198.55133179 32.00752774 194.52886277 35 190.5 C36.16474682 188.9210775 37.32880701 187.34164826 38.4921875 185.76171875 C39.06936523 184.97845215 39.64654297 184.19518555 40.24121094 183.38818359 C42.01877272 180.97450933 43.79472586 178.55965879 45.5703125 176.14453125 C51.49809725 168.08482392 57.45167967 160.04675097 63.46582031 152.05126953 C67.29762705 146.95104624 71.09260548 141.82445376 74.875 136.6875 C75.4522583 135.9044751 76.0295166 135.1214502 76.62426758 134.31469727 C79.72851476 130.10016248 82.81905668 125.87620753 85.89453125 121.640625 C86.52955566 120.76962158 87.16458008 119.89861816 87.81884766 119.0012207 C89.04011595 117.32568656 90.25741597 115.64725087 91.47021484 113.96557617 C92.02016113 113.21252197 92.57010742 112.45946777 93.13671875 111.68359375 C93.61842529 111.01900146 94.10013184 110.35440918 94.59643555 109.66967773 C96 108 96 108 99 106 C101.60590232 105.79557022 104.10583214 105.70628122 106.71264648 105.70947266 C107.49669861 105.70275543 108.28075073 105.69603821 109.08856201 105.68911743 C111.68280355 105.67010492 114.27678687 105.66621174 116.87109375 105.6640625 C118.67326464 105.65763726 120.47543447 105.65090911 122.27760315 105.64389038 C126.05626851 105.63190979 129.83484238 105.6282104 133.61352539 105.62939453 C138.45714026 105.62959787 143.30016933 105.6022845 148.14364529 105.56785011 C151.86597899 105.54562158 155.58817075 105.54155573 159.31056404 105.54261398 C161.09636519 105.54025235 162.88216992 105.53139725 164.66790581 105.51594925 C167.16500869 105.4963688 169.66083588 105.50209506 172.15795898 105.51416016 C172.89627457 105.50292114 173.63459015 105.49168213 174.39527893 105.48010254 C177.85487518 105.52261325 179.69303501 105.76858923 182.49085999 107.8777771 C184 110 184 110 183.98828125 112.44140625 C182.80954589 115.49307288 181.3153162 117.44929691 179.1875 119.9375 C178.37667969 120.89527344 177.56585937 121.85304688 176.73046875 122.83984375 C175.82095707 123.89378575 174.91077295 124.94714775 174 126 C173.01641205 127.14669384 172.03335326 128.29384175 171.05078125 129.44140625 C169.51776581 131.23058235 167.98376428 133.01885324 166.44628906 134.80419922 C162.64666585 139.22098946 158.9438453 143.70874533 155.26953125 148.23046875 C150.45311061 154.10799411 145.505057 159.87611914 140.58398438 165.66601562 C135.09729486 172.12406926 129.66222871 178.61497616 124.3125 185.1875 C121.2756723 188.8809391 118.18039045 192.52298486 115.08374023 196.16625977 C112.2045468 199.55954109 109.36795763 202.98267786 106.5625 206.4375 C103.10725543 210.68392758 99.57293424 214.85288424 96 219 C91.65021439 224.05056919 87.36460737 229.14303719 83.1796875 234.33203125 C81.63041173 236.228367 80.04860268 238.09832565 78.4453125 239.94921875 C77.20394531 241.39748047 77.20394531 241.39748047 75.9375 242.875 C75.18339844 243.73867188 74.42929688 244.60234375 73.65234375 245.4921875 C71.87895709 247.86075157 71.87895709 247.86075157 71.453125 250.44921875 C72.23398315 254.09136425 74.36032735 256.27193467 76.8125 258.9375 C77.83557837 260.09567696 78.85634587 261.25589863 79.875 262.41796875 C80.39835937 263.0114209 80.92171875 263.60487305 81.4609375 264.21630859 C83.84737975 266.98206797 86.07959095 269.85993865 88.3125 272.75 C92.45140116 278.07700925 96.69589055 283.30566678 101 288.5 C105.30416415 293.69439924 109.54670621 298.92441261 113.6875 304.25 C117.62523484 309.31280194 121.70085162 314.22992493 125.87133789 319.10205078 C129.7130904 323.610893 133.37860273 328.24328981 137.02001953 332.91455078 C140.47203951 337.34056429 143.99726127 341.69957129 147.5625 346.03515625 C155.17250579 355.29155752 162.75005756 364.57334893 170.0925293 374.04418945 C172.22840611 376.79031678 174.39444777 379.48512007 176.68359375 382.10546875 C177.92302734 383.53826172 177.92302734 383.53826172 179.1875 385 C179.92355469 385.825 180.65960937 386.65 181.41796875 387.5 C183.3891801 390.61500065 183.53660342 392.37669616 183 396 C181.94869995 397.65344238 181.94869995 397.65344238 180 399 C177.3869681 399.3063419 175.00988297 399.43042768 172.39501953 399.41992188 C171.62232727 399.42839142 170.84963501 399.43686096 170.05352783 399.44558716 C167.49645575 399.46900641 164.93998377 399.46997807 162.3828125 399.46875 C160.60545612 399.47584942 158.82810204 399.48354809 157.05075073 399.49182129 C153.32331983 399.50527797 149.59610076 399.50682993 145.86865234 399.50097656 C141.09447476 399.49508402 136.32131536 399.52564746 131.54733467 399.56609344 C127.87554458 399.59196021 124.20399984 399.59484872 120.5321312 399.59120178 C118.77227091 399.59289448 117.01239946 399.6025515 115.25262833 399.62034607 C112.78898576 399.64251316 110.32740578 399.63284685 107.86376953 399.61523438 C107.13839996 399.62849762 106.4130304 399.64176086 105.66567993 399.65542603 C101.76657965 399.59074322 100.16124168 399.13443926 97.12586975 396.60362244 C96.07356422 395.31482933 96.07356422 395.31482933 95 394 C94.38036377 393.24984619 93.76072754 392.49969238 93.12231445 391.72680664 C92.5418335 390.96231201 91.96135254 390.19781738 91.36328125 389.41015625 C90.70908203 388.55099609 90.05488281 387.69183594 89.38085938 386.80664062 C88.69830078 385.90107422 88.01574219 384.99550781 87.3125 384.0625 C86.59771484 383.11955078 85.88292969 382.17660156 85.14648438 381.20507812 C80.95993613 375.66216402 76.86087439 370.07311976 72.8684082 364.38891602 C69.04953626 358.98786103 65.02399443 353.74915247 61 348.5 C56.15183136 342.17437953 51.37694244 335.82124527 46.78808594 329.30541992 C42.59242784 323.37138738 38.21263066 317.5777798 33.83691406 311.77587891 C30.52649844 307.38240535 27.23909002 302.97479762 23.99609375 298.53125 C23.35639648 297.65557373 22.71669922 296.77989746 22.05761719 295.87768555 C20.83216206 294.19676426 19.61002946 292.51341455 18.39160156 290.82739258 C17.84342773 290.07611084 17.29525391 289.3248291 16.73046875 288.55078125 C16.00960083 287.55558472 16.00960083 287.55558472 15.27416992 286.5402832 C14.06044569 284.86183718 14.06044569 284.86183718 12 284 C7.85496339 283.75212983 7.85496339 283.75212983 4 285 C3.99668985 285.55806965 3.99337971 286.1161393 3.98996925 286.69112015 C3.90874852 300.27025514 3.81653385 313.84927715 3.71247292 327.42825699 C3.66248272 333.99495574 3.6161528 340.56163818 3.578125 347.12841797 C3.54130679 353.46324644 3.49495606 359.79793941 3.44193649 366.13265228 C3.42337415 368.55198545 3.40827304 370.97134769 3.39665604 373.39072418 C3.37982529 376.77397093 3.35079739 380.15690609 3.31884766 383.54003906 C3.31668747 384.54488846 3.31452728 385.54973785 3.31230164 386.58503723 C3.30113815 387.50767868 3.28997467 388.43032013 3.2784729 389.38092041 C3.27017676 390.58109488 3.27017676 390.58109488 3.26171303 391.80551529 C2.96649137 394.28097254 2.31685909 395.89105799 1 398 C-1.83891677 399.41945839 -4.2473431 399.14298829 -7.42163086 399.16113281 C-8.08034683 399.16609772 -8.73906281 399.17106262 -9.41773987 399.17617798 C-11.60011839 399.1908014 -13.78242426 399.19760133 -15.96484375 399.203125 C-17.47937523 399.20887567 -18.99390668 399.21463341 -20.50843811 399.22039795 C-23.68523498 399.230908 -26.86200654 399.23675084 -30.03881836 399.24023438 C-34.112336 399.24572361 -38.18552013 399.26976043 -42.25893307 399.29820633 C-45.38758833 399.31681502 -48.51616291 399.32203732 -51.64486885 399.32357025 C-53.14680368 399.3266006 -54.64873696 399.33464201 -56.1506176 399.34775543 C-58.25032953 399.36478212 -60.34922195 399.36294476 -62.44897461 399.35644531 C-63.64429306 399.36009094 -64.83961151 399.36373657 -66.07115173 399.36749268 C-69 399 -69 399 -70.64845914 397.81068903 C-72.4734878 395.36565797 -72.44448715 393.70034221 -72.55350208 390.66148281 C-72.60017735 389.54669125 -72.64685262 388.43189969 -72.6949423 387.28332657 C-72.73122367 386.05307205 -72.76750505 384.82281754 -72.80488586 383.55528259 C-72.85401648 382.25171438 -72.9031471 380.94814617 -72.95376652 379.6050759 C-73.08894019 375.97715454 -73.20438715 372.34883639 -73.31569397 368.72011364 C-73.38842139 366.3984335 -73.46663271 364.07700216 -73.54668617 361.75556374 C-74.59857953 331.20963877 -75.1976405 300.65310642 -75.66599751 270.09323788 C-75.72677964 266.19812587 -75.78877311 262.3030352 -75.85180664 258.40795898 C-75.86742262 257.4400651 -75.88303861 256.47217122 -75.8991278 255.47494722 C-76.14071805 240.91020456 -76.58623565 226.36120345 -77.14379883 211.80541992 C-77.99151405 189.38144571 -78.53575547 166.96837778 -78.55078125 144.52734375 C-78.55186553 143.62621949 -78.55294982 142.72509523 -78.55406696 141.79666418 C-78.56338352 61.83708502 -78.56338352 61.83708502 -48.37431335 30.86952209 C-37.55482279 20.39115221 -25.64764866 11.03975913 -12.67131042 3.37770081 C-12.08251974 3.02550521 -11.49372905 2.67330962 -10.88709623 2.31044143 C-7.14822141 0.22596264 -4.2598464 -0.70897364 0 0 Z " fill="#071313" transform="translate(1216,131)"/>
<path d="M0 0 C2.05582751 2.05582751 1.15048338 6.44063343 1.15148926 9.26902771 C1.15572167 10.14643476 1.15995408 11.02384181 1.16431475 11.92783695 C1.17741346 14.89126465 1.18338212 17.8546654 1.18945312 20.81811523 C1.19738978 22.93321907 1.20577726 25.04832125 1.21458435 27.16342163 C1.23268292 31.72951723 1.24768361 36.2956091 1.26036072 40.86172295 C1.2805228 48.07483633 1.30818304 55.28790869 1.33703613 62.50099182 C1.39721721 77.81314205 1.44901455 93.12531681 1.5 108.4375 C1.55503056 124.9618201 1.61146729 141.4861278 1.67754889 158.01040798 C1.70596426 165.18771249 1.72953664 172.36501208 1.74947357 179.54234493 C1.76282709 184.00016636 1.78024145 188.45796509 1.79878426 192.91576767 C1.80656363 194.99028387 1.81262293 197.0648073 1.81687737 199.13933372 C1.82289192 201.96092438 1.83492432 204.78242584 1.84851074 207.60398865 C1.84880673 208.43403473 1.84910272 209.26408081 1.84940767 210.1192798 C1.77748188 214.19119352 1.77748188 214.19119352 3 218 C6.29320175 219.01888555 6.29320175 219.01888555 10 219 C15.00731153 215.87147873 18.06016716 211.15891231 21.4375 206.4375 C22.68601911 204.71731812 23.93472213 202.99726972 25.18359375 201.27734375 C25.81765137 200.39933105 26.45170898 199.52131836 27.10498047 198.61669922 C30.04391514 194.55853099 33.02271599 190.53006709 36 186.5 C37.1668835 184.91682646 38.33354956 183.33349264 39.5 181.75 C46.5 172.25 53.5 162.75 60.5 153.25 C61.3667334 152.0736499 61.3667334 152.0736499 62.25097656 150.87353516 C63.41421026 149.29495363 64.57762088 147.71650246 65.74121094 146.13818359 C68.71188824 142.10821436 71.67917562 138.0758189 74.640625 134.0390625 C93.08479739 108.91520261 93.08479739 108.91520261 97 105 C99.60372066 104.79636736 102.10153159 104.71679143 104.70678711 104.7253418 C105.50205307 104.72023087 106.29731903 104.71511993 107.11668396 104.70985413 C109.75364646 104.69591891 112.39034874 104.69691785 115.02734375 104.69921875 C116.85575966 104.6953339 118.68417467 104.69099968 120.5125885 104.68623352 C124.34850996 104.67876281 128.18433939 104.67906868 132.02026367 104.68432617 C136.94125966 104.6901212 141.86187932 104.67319319 146.78281307 104.6499815 C150.56000479 104.63526481 154.33710545 104.63436964 158.11432076 104.63749123 C159.92884631 104.63697695 161.74337683 104.63171931 163.55787468 104.62167931 C166.09343945 104.60937236 168.62826582 104.61607169 171.16381836 104.62768555 C171.916651 104.62004181 172.66948364 104.61239807 173.44512939 104.60452271 C178.50243465 104.65584477 178.50243465 104.65584477 180.95484924 106.35212708 C182.7123845 109.12320554 182.5513269 110.78071353 182 114 C180.30977825 116.66649018 178.22000017 118.89214799 176.0625 121.1875 C174.85686283 122.52104239 173.65244044 123.85568403 172.44921875 125.19140625 C171.8567334 125.84125488 171.26424805 126.49110352 170.65380859 127.16064453 C168.4762781 129.58248019 166.41880369 132.08978996 164.375 134.625 C161.13270988 138.62738744 157.83611799 142.57599958 154.5 146.5 C151.14547904 150.44646124 147.82778038 154.41642235 144.5625 158.4375 C140.60556582 163.30049424 136.53564058 168.05700203 132.44384766 172.80615234 C128.64836633 177.22031766 124.94722087 181.70333198 121.27734375 186.22265625 C118.25580056 189.90759143 115.16964049 193.53568321 112.08349609 197.16650391 C109.20442157 200.55973475 106.36788508 203.9827672 103.5625 207.4375 C100.10725391 211.68392946 96.57289051 215.85284488 93 220 C85.11453868 229.15767062 77.52643378 238.54581479 70 248 C71.46728305 252.40184916 73.8643381 255.68816328 76.75 259.25 C77.22735596 259.84844727 77.70471191 260.44689453 78.1965332 261.06347656 C83.32534843 267.46649593 88.56065884 273.78376842 93.7890625 280.10546875 C96.86340203 283.82643076 99.88795177 287.58427584 102.890625 291.36328125 C105.67525618 294.84407023 108.49568627 298.29524046 111.3125 301.75 C115.47255358 306.85375003 119.57972626 311.99237856 123.625 317.1875 C127.5886014 322.27363229 131.68990285 327.21634116 135.88208008 332.11499023 C139.59808865 336.47674653 143.1403162 340.95679796 146.6574707 345.47949219 C150.42139718 350.30295832 154.2889332 355.03491156 158.1875 359.75 C163.1796051 365.79127741 168.16398561 371.83232947 173 378 C173.81855469 379.0209375 174.63710937 380.041875 175.48046875 381.09375 C176.32124815 382.16593361 177.16110615 383.23884046 178 384.3125 C178.763125 385.27800781 179.52625 386.24351562 180.3125 387.23828125 C182.13806944 390.22596086 182.64198492 391.57799109 182 395 C180.94796753 396.62049866 180.94796753 396.62049866 179 398 C176.38640739 398.30117992 174.00977934 398.42018988 171.39501953 398.40405273 C170.62232727 398.41091599 169.84963501 398.41777924 169.05352783 398.42485046 C166.49643633 398.44316769 163.93995561 398.43927351 161.3828125 398.43359375 C159.60545654 398.43815382 157.82810235 398.44345887 156.05075073 398.44947815 C152.32331181 398.45841937 148.59608701 398.45597541 144.86865234 398.44604492 C140.09460044 398.43456493 135.32128924 398.45474643 130.54733467 398.48396206 C126.87555248 398.5023216 123.20394777 398.50203192 119.5321312 398.49632454 C117.77228635 398.49617123 116.01242954 398.50222315 114.25262833 398.51461601 C111.78920538 398.52951667 109.32715007 398.51885619 106.86376953 398.50170898 C106.13839996 398.51137695 105.4130304 398.52104492 104.66567993 398.53100586 C99.82129025 398.4604975 97.41355742 397.40993182 94 394 C92.49745811 392.06974748 91.06632573 390.08298176 89.6875 388.0625 C85.2991455 381.73669726 80.69003349 375.60492226 76 369.5 C71.15112465 363.17494137 66.37692311 356.82121782 61.78808594 350.30541992 C58.20367755 345.23589436 54.48414155 340.27243878 50.75 335.3125 C45.78007209 328.71095427 40.83467191 322.09323322 35.9375 315.4375 C35.37144043 314.66889648 34.80538086 313.90029297 34.22216797 313.10839844 C31.18980991 308.98770045 28.16717319 304.86010224 25.15234375 300.7265625 C24.52013916 299.86232666 23.88793457 298.99809082 23.23657227 298.10766602 C22.02709197 296.4540487 20.82038746 294.79839627 19.61694336 293.14038086 C15.71632963 287.70517143 15.71632963 287.70517143 11 283 C7.95746492 282.41654524 7.95746492 282.41654524 5 283 C2.90256965 284.57620342 2.09876089 285.4586619 1.62361908 288.06305695 C1.62290657 288.86019859 1.62219406 289.65734024 1.62145996 290.4786377 C1.61325729 291.395569 1.60505463 292.31250031 1.59660339 293.25721741 C1.60275162 294.26094894 1.60889984 295.26468048 1.61523438 296.29882812 C1.6098616 297.35758652 1.60448883 298.41634491 1.59895325 299.50718689 C1.58916027 301.80872266 1.58623566 304.11029542 1.58930969 306.41184998 C1.59377402 310.0508294 1.57982686 313.689319 1.56091309 317.32824707 C1.52407153 325.05215665 1.51040823 332.77601547 1.5 340.5 C1.48794207 349.44822986 1.46650713 358.39622219 1.41999817 367.34434509 C1.40637517 370.93575221 1.41060845 374.52686308 1.41540527 378.11828613 C1.40606859 380.31258528 1.39590077 382.50688111 1.38476562 384.70117188 C1.39091385 385.70490341 1.39706207 386.70863495 1.40339661 387.74278259 C1.39519394 388.6597139 1.38699127 389.5766452 1.37854004 390.5213623 C1.37782753 391.31850395 1.37711502 392.1156456 1.37638092 392.93694305 C0.90134689 395.54074737 0.0988274 396.42630415 -2 398 C-4.92211914 398.38095093 -4.92211914 398.38095093 -8.53515625 398.38818359 C-9.52344925 398.39606903 -9.52344925 398.39606903 -10.53170776 398.40411377 C-12.7088799 398.41731412 -14.88532047 398.40857626 -17.0625 398.3984375 C-18.57560364 398.40045824 -20.08870633 398.40336968 -21.60180664 398.40713501 C-24.77271804 398.41155838 -27.94337589 398.40512711 -31.11425781 398.39111328 C-35.17995892 398.3740211 -39.24506593 398.38386225 -43.31074524 398.40183067 C-46.43514487 398.41266832 -49.55940351 398.40922232 -52.68380737 398.4014473 C-54.18293325 398.39944522 -55.6820719 398.40190485 -57.18118286 398.40888596 C-59.27608166 398.41650046 -61.37001678 398.40489789 -63.46484375 398.38818359 C-65.25329712 398.38460342 -65.25329712 398.38460342 -67.07788086 398.38095093 C-70 398 -70 398 -71.64803857 396.80984789 C-73.47400455 394.36545813 -73.44448744 392.7003342 -73.55350208 389.66148281 C-73.60017735 388.54669125 -73.64685262 387.43189969 -73.6949423 386.28332657 C-73.73122367 385.05307205 -73.76750505 383.82281754 -73.80488586 382.55528259 C-73.85401648 381.25171438 -73.9031471 379.94814617 -73.95376652 378.6050759 C-74.08894019 374.97715454 -74.20438715 371.34883639 -74.31569397 367.72011364 C-74.38842139 365.3984335 -74.46663271 363.07700216 -74.54668617 360.75556374 C-75.59857953 330.20963877 -76.1976405 299.65310642 -76.66599751 269.09323788 C-76.72677964 265.19812587 -76.78877311 261.3030352 -76.85180664 257.40795898 C-76.86742262 256.4400651 -76.88303861 255.47217122 -76.8991278 254.47494722 C-77.14071806 239.91020443 -77.58624087 225.36120372 -78.14379883 210.80541992 C-78.9914834 188.38147513 -79.53677862 165.96836334 -79.55078125 143.52734375 C-79.55179929 142.62628574 -79.55281732 141.72522773 -79.55386621 140.79686493 C-79.55598331 60.81671097 -79.55598331 60.81671097 -49.42314148 29.82069397 C-38.62682792 19.33704516 -26.75556193 9.91819627 -13.78483582 2.26417542 C-13.19964041 1.90838455 -12.614445 1.55259368 -12.01151639 1.18602127 C-7.69552535 -1.20366972 -4.7327301 -1.15588654 0 0 Z " fill="#061212" transform="translate(2526,132)"/>
<path d="M0 0 C0.69547943 -0.0049649 1.39095886 -0.00992981 2.10751343 -0.01504517 C4.3902082 -0.02954955 6.67283327 -0.03645248 8.95556641 -0.04199219 C10.13872374 -0.04623325 10.13872374 -0.04623325 11.34578323 -0.05056 C15.52805154 -0.06551233 19.71028576 -0.07476418 23.89257812 -0.07910156 C28.16298552 -0.08455083 32.43306837 -0.10851449 36.70337486 -0.13707352 C40.0290307 -0.15592405 43.35461224 -0.16091744 46.68031693 -0.16243744 C48.2516213 -0.16541917 49.82292584 -0.17329093 51.39417648 -0.18662262 C76.79877052 -0.38662265 101.08390798 5.51617074 120.02734375 23.34643555 C142.6606359 45.64799162 149.15383698 78.59529429 150.68212891 109.16113281 C150.76333984 110.47597656 150.76333984 110.47597656 150.84619141 111.81738281 C151.45833844 129.84789551 147.06712527 150.79522026 135.42431641 164.89550781 C125.66620565 175.23482265 113.74387297 180.04462101 99.5382843 180.5531311 C97.34325518 180.57613686 95.14802256 180.58355619 92.95288086 180.57763672 C91.74329208 180.58622208 90.53370331 180.59480743 89.28746033 180.60365295 C86.01127377 180.62426027 82.73536611 180.63210935 79.45912576 180.63431215 C76.01892666 180.64002101 72.57884727 180.66332021 69.13871765 180.68490601 C62.64149497 180.72323261 56.14430714 180.74758057 49.64700049 180.76603067 C37.9806774 180.79961893 26.31445765 180.85711798 14.64825982 180.92002237 C11.22729892 180.93799902 7.80636773 180.95302735 4.38537025 180.96190262 C0.58623319 180.97181728 -3.21284839 180.98720187 -7.01196289 181.00341797 C-8.14900665 181.0044603 -9.28605042 181.00550262 -10.45755005 181.00657654 C-11.4849379 181.01202988 -12.51232574 181.01748322 -13.57084656 181.02310181 C-14.46875758 181.0256579 -15.36666861 181.028214 -16.29178905 181.03084755 C-18.31381833 180.93698896 -18.31381833 180.93698896 -19.31787109 182.16113281 C-20.47879301 194.23472074 -14.99724224 207.11087898 -7.50537109 216.41113281 C2.78928534 227.36996063 16.8820268 232.48990874 31.77516174 233.27088928 C34.1553625 233.32848413 36.53168912 233.34451198 38.91259766 233.34082031 C39.81705124 233.33960175 40.72150482 233.33838318 41.65336609 233.33712769 C53.79983092 233.23374479 65.89029959 232.22729377 77.99462891 231.28613281 C80.34548855 231.1096599 82.69640004 230.9338764 85.04736328 230.75878906 C94.25316885 230.06741963 103.45693713 229.36649335 112.65234375 228.546875 C113.75918015 228.44946014 114.86601654 228.35204529 116.00639343 228.25167847 C118.10277528 228.06549552 120.19869187 227.87397208 122.29402161 227.67630005 C123.22413559 227.59378998 124.15424957 227.51127991 125.11254883 227.42626953 C126.33285042 227.31301834 126.33285042 227.31301834 127.57780457 227.19747925 C129.68212891 227.16113281 129.68212891 227.16113281 132.68212891 228.16113281 C135.22390043 232.69300886 135.55995499 238.02809164 136.26025391 243.09863281 C136.39534363 244.05632568 136.53043335 245.01401855 136.6696167 246.00073242 C136.95194389 248.02084703 137.23077951 250.04145229 137.50634766 252.0625 C137.93090847 255.15225104 138.37632435 258.23853812 138.82275391 261.32519531 C139.09487068 263.29116393 139.36574605 265.25730485 139.63525391 267.22363281 C139.77054504 268.1445874 139.90583618 269.06554199 140.04522705 270.0144043 C141.14981997 278.40313367 141.14981997 278.40313367 138.68212891 282.16113281 C114.91268905 297.02733739 67.86825955 293.42918533 40.86962891 293.53613281 C39.8148938 293.54407867 38.76015869 293.55202454 37.67346191 293.56021118 C20.36043288 293.66061717 3.05313408 292.76171394 -13.56787109 287.47363281 C-14.38376709 287.2201709 -15.19966309 286.96670898 -16.0402832 286.70556641 C-28.66300199 282.60898854 -40.01663506 276.55294971 -50.31787109 268.16113281 C-51.14544922 267.49726563 -51.97302734 266.83339844 -52.82568359 266.14941406 C-79.41378125 243.60370743 -89.83213216 208.54611749 -93.10621643 174.93603516 C-93.47383586 170.11635391 -93.50104543 165.30154665 -93.52099609 160.46972656 C-93.52669617 159.3667775 -93.53239624 158.26382843 -93.53826904 157.12745667 C-93.5476714 154.79697614 -93.55423394 152.4664826 -93.55810547 150.13598633 C-93.5677006 146.66039053 -93.59872436 143.18541563 -93.63037109 139.70996094 C-93.80899032 102.06478759 -88.81824767 57.32104539 -62.31787109 28.16113281 C-61.49544922 27.24589844 -60.67302734 26.33066406 -59.82568359 25.38769531 C-44.24484433 8.90361899 -22.61207501 0.12373578 0 0 Z M-7.31787109 68.16113281 C-16.82391124 80.60286183 -22.60660984 101.46544894 -21.31787109 117.16113281 C-20.09973314 118.91028314 -20.09973314 118.91028314 -18.31787109 120.16113281 C-15.33629101 120.46267812 -12.5628116 120.58108269 -9.57958984 120.56518555 C-8.68664215 120.5720488 -7.79369446 120.57891205 -6.87368774 120.58598328 C-3.91742118 120.60430836 -0.96168235 120.600406 1.99462891 120.59472656 C4.04581883 120.59928531 6.09700721 120.60458996 8.14819336 120.61061096 C12.44895632 120.61955306 16.74953369 120.61710606 21.05029297 120.60717773 C26.56884967 120.59568117 32.08676717 120.6159047 37.60523987 120.64509487 C41.84139085 120.66341638 46.07738747 120.6631726 50.31356812 120.65745735 C52.34859108 120.65730367 54.3836242 120.66338649 56.41860962 120.67574883 C59.26076705 120.69058226 62.10172836 120.68003869 64.94384766 120.6628418 C65.78861664 120.67250977 66.63338562 120.68217773 67.50375366 120.69213867 C72.04532952 120.68534093 72.04532952 120.68534093 75.70401001 118.25901794 C76.7779963 115.95551488 77.06878452 114.42192367 77.08056641 111.88769531 C77.08685059 111.06978516 77.09313477 110.251875 77.09960938 109.40917969 C77.08559082 108.54357422 77.07157227 107.67796875 77.05712891 106.78613281 C77.04697754 105.89216797 77.03682617 104.99820313 77.02636719 104.07714844 C76.70817138 90.33306299 73.92167396 76.49330143 64.24462891 66.09863281 C57.09459204 59.61151327 48.74160357 59.00440536 39.50634766 58.95800781 C38.62235794 58.95230774 37.73836823 58.94660767 36.82759094 58.94073486 C34.96083768 58.9313104 33.09406798 58.92476106 31.22729492 58.92089844 C28.38967483 58.91120132 25.55278214 58.8801573 22.71533203 58.84863281 C20.89567484 58.84210094 19.07601251 58.83685119 17.25634766 58.83300781 C16.41649826 58.82066101 15.57664886 58.80831421 14.71134949 58.79559326 C5.84612559 58.82868012 -1.30657569 61.49766857 -7.31787109 68.16113281 Z " fill="#051111" transform="translate(955.31787109375,237.8388671875)"/>
<path d="M0 0 C20.62563892 19.37295181 26.85232049 45.70650269 28 73 C28.16708247 79.27441754 28.14735009 85.55099319 28.14526367 91.82714844 C28.14826398 93.65550809 28.15166848 95.48386712 28.15544128 97.31222534 C28.16418585 102.22461635 28.16661501 107.13698989 28.16725707 112.04938793 C28.16797176 115.12230545 28.17011369 118.19521864 28.17275429 121.26813507 C28.18196816 131.99711893 28.18609318 142.72609044 28.18530273 153.45507812 C28.1846994 163.44826575 28.19531117 173.44139984 28.2110464 183.43457389 C28.22410451 192.03446575 28.22948753 200.63434002 28.22884732 209.23424172 C28.22859231 214.36274119 28.23144697 219.49119275 28.24202538 224.61968231 C28.25167996 229.42968346 28.25180381 234.23959049 28.24450874 239.04959488 C28.24346039 240.81529248 28.24584057 242.58099588 28.2518692 244.3466835 C28.25955514 246.75302369 28.25496747 249.15903583 28.24723816 251.56536865 C28.25238172 252.26651975 28.25752529 252.96767086 28.26282471 253.69006896 C28.23732433 257.27219467 28.0763034 260.00996035 26 263 C23.3155464 264.3422268 21.22679519 264.14195458 18.22094727 264.16113281 C17.00951553 264.17074036 15.7980838 264.1803479 14.54994202 264.19024658 C12.57809181 264.1966214 12.57809181 264.1966214 10.56640625 264.203125 C9.2088165 264.20887623 7.85122678 264.21463397 6.49363708 264.22039795 C3.64638897 264.23090614 0.79916908 264.23675019 -2.0480957 264.24023438 C-5.69789123 264.2457231 -9.34731442 264.2697594 -12.99699306 264.29820633 C-15.80138747 264.31682114 -18.60569192 264.32203764 -21.4101429 264.32357025 C-23.41047095 264.32807295 -25.41075086 264.34672369 -27.41099548 264.36553955 C-28.62557938 264.36253845 -29.84016327 264.35953735 -31.09155273 264.35644531 C-32.16251694 264.36009094 -33.23348114 264.36373657 -34.3368988 264.36749268 C-37 264 -37 264 -38.83850098 262.61750793 C-40.39705255 260.44706312 -40.48750271 258.83924145 -40.66015625 256.18359375 C-40.73169922 255.25482422 -40.80324219 254.32605469 -40.87695312 253.36914062 C-40.93818359 252.40169922 -40.99941406 251.43425781 -41.0625 250.4375 C-41.19108107 248.51896852 -41.32742319 246.60093657 -41.47265625 244.68359375 C-41.52687744 243.83337646 -41.58109863 242.98315918 -41.63696289 242.10717773 C-41.82804531 239.7874316 -41.82804531 239.7874316 -44 238 C-47.88387896 238.31404302 -50.10500247 239.56942076 -53.125 241.9375 C-79.03518865 260.6654307 -109.55812211 267.21341848 -140.95703125 262.75 C-161.15366328 259.23668409 -179.11251416 250.4527596 -191.90234375 234.03125 C-209.56771135 208.50364244 -211.70520361 173.17645797 -206.40820312 143.41601562 C-202.00664886 121.36911937 -192.962794 102.04196848 -174.34765625 88.515625 C-167.23310342 83.92253598 -159.81879817 80.72658015 -151.75 78.25 C-151.12029297 78.05132324 -150.49058594 77.85264648 -149.84179688 77.64794922 C-136.32990266 73.76411165 -122.12987562 73.6920624 -108.19140625 73.62109375 C-106.44546115 73.60487133 -104.69952476 73.58768661 -102.95359802 73.56959534 C-98.41519173 73.5244552 -93.87677311 73.48934611 -89.33825684 73.45739746 C-82.02348861 73.404963 -74.70884576 73.34049971 -67.39423943 73.26918221 C-64.84540373 73.24635347 -62.29658458 73.23009863 -59.74769592 73.21446228 C-58.20231933 73.20106905 -56.65694464 73.18745544 -55.11157227 73.17358398 C-54.40159592 73.17097061 -53.69161957 73.16835724 -52.96012878 73.16566467 C-49.69870282 73.4073742 -49.69870282 73.4073742 -47 72 C-46.00633792 54.77982004 -46.00633792 54.77982004 -53.1875 39.625 C-58.02060297 34.55638566 -64.15046565 31.27918884 -71.2145462 30.87250805 C-72.02421593 30.87125077 -72.83388565 30.8699935 -73.66809082 30.86869812 C-74.60177994 30.86468994 -75.53546906 30.86068176 -76.49745178 30.85655212 C-77.51471848 30.85708084 -78.53198517 30.85760956 -79.58007812 30.8581543 C-80.65688339 30.85467987 -81.73368866 30.85120544 -82.84312439 30.84762573 C-85.18121321 30.84027453 -87.51930899 30.83492576 -89.85740662 30.83133507 C-93.5554268 30.82417192 -97.25331413 30.80850781 -100.95129395 30.78999329 C-111.46540205 30.73750567 -121.97942362 30.68951048 -132.49365234 30.67407227 C-138.92393845 30.66401097 -145.35388872 30.63473709 -151.78404236 30.59275246 C-154.23686691 30.580415 -156.68973882 30.57532617 -159.14259338 30.57755089 C-162.56873663 30.57989446 -165.99390944 30.55780946 -169.41992188 30.5300293 C-170.43718857 30.53663071 -171.45445526 30.54323212 -172.50254822 30.55003357 C-179.30818232 30.4591572 -179.30818232 30.4591572 -182.62890625 28.25520325 C-184.17062363 25.71935474 -184.50578701 24.33688501 -184.51757812 21.38671875 C-184.53018677 20.47897705 -184.54279541 19.57123535 -184.55578613 18.63598633 C-184.54768921 17.66298584 -184.53959229 16.68998535 -184.53125 15.6875 C-184.5350769 14.68162842 -184.53890381 13.67575684 -184.54284668 12.6394043 C-184.54556651 10.51447549 -184.53820041 8.38951324 -184.52148438 6.26464844 C-184.50007641 3.01161068 -184.52128432 -0.23921845 -184.546875 -3.4921875 C-184.54423174 -5.55729654 -184.53910679 -7.62240421 -184.53125 -9.6875 C-184.53934692 -10.66050049 -184.54744385 -11.63350098 -184.55578613 -12.63598633 C-184.46394938 -19.24764579 -184.46394938 -19.24764579 -182.4152832 -22.56982422 C-179.18820633 -24.48069214 -176.55567799 -24.80797347 -172.82421875 -25.1953125 C-172.11530991 -25.27314972 -171.40640106 -25.35098694 -170.67601013 -25.43118286 C-168.34801839 -25.68104044 -166.01840109 -25.90405982 -163.6875 -26.125 C-162.05640854 -26.29065997 -160.42538698 -26.45700954 -158.79443359 -26.62402344 C-153.86601851 -27.11857405 -148.9343468 -27.56899125 -144 -28 C-143.28221375 -28.06272095 -142.56442749 -28.12544189 -141.82489014 -28.19006348 C-93.63698591 -32.33315268 -38.73949868 -33.87860225 0 0 Z M-130 136 C-139.77767732 150.36876746 -141.90520886 169.58852976 -139.50390625 186.4921875 C-137.77445952 194.17210348 -135.45244786 200.60127692 -128.8515625 205.1875 C-124.77383533 207.38811059 -121.19386989 207.61535017 -116.625 207.5 C-115.84334473 207.48791504 -115.06168945 207.47583008 -114.25634766 207.46337891 C-105.85598392 207.18466183 -98.01086994 205.45768525 -90 203 C-89.34854004 202.80164551 -88.69708008 202.60329102 -88.02587891 202.39892578 C-76.02388339 198.60929796 -64.58499348 192.78269778 -54 186 C-53.32813156 185.62908737 -52.65626312 185.25817474 -51.96403503 184.87602234 C-48.7321274 182.86896905 -46.41620322 181.37322817 -45.28225708 177.63186646 C-45.02370885 174.73036607 -45.02134148 171.93112179 -45.11328125 169.01953125 C-45.11958809 167.44482307 -45.11958809 167.44482307 -45.12602234 165.83830261 C-45.14244432 163.62676412 -45.17807019 161.41529509 -45.23168945 159.2043457 C-45.31248637 155.81307206 -45.33415768 152.42535188 -45.34570312 149.03320312 C-45.36895194 146.88277251 -45.39552968 144.73237475 -45.42578125 142.58203125 C-45.43539383 141.56639603 -45.44500641 140.5507608 -45.45491028 139.50434875 C-45.48050522 138.5629454 -45.50610016 137.62154205 -45.5324707 136.65161133 C-45.54993851 135.82365555 -45.56740631 134.99569977 -45.58540344 134.14265442 C-45.87352273 131.96909566 -45.87352273 131.96909566 -47.0970459 130.23750305 C-49.99661464 128.35189521 -52.48067436 128.58753948 -55.91479492 128.54833984 C-56.9641925 128.53081665 -56.9641925 128.53081665 -58.03479004 128.51293945 C-60.3501554 128.47931937 -62.66488068 128.46861137 -64.98046875 128.4609375 C-66.59369634 128.44875479 -68.20692166 128.43626871 -69.82014465 128.42349243 C-73.2054247 128.40100266 -76.59047952 128.39146136 -79.97583008 128.38916016 C-84.29946449 128.38389015 -88.62120532 128.33264995 -92.94433117 128.26964378 C-96.27913144 128.2286259 -99.6134813 128.21951681 -102.94851112 128.21904373 C-104.5412729 128.21367958 -106.1340409 128.19690213 -107.72655296 128.16819382 C-116.93081475 128.01617187 -123.98033674 128.076381 -130 136 Z " fill="#071313" transform="translate(1612,266)"/>
<path d="M0 0 C17.99187255 16.75536154 27.48041624 40.65127874 28.55881739 65.05638862 C28.59777952 67.22034971 28.60779937 69.3822932 28.60528564 71.54660034 C28.60825677 72.36480039 28.61122789 73.18300043 28.61428905 74.02599442 C28.62289397 76.74113585 28.62447719 79.45623278 28.62597656 82.17138672 C28.63061012 84.12841382 28.6356355 86.08544003 28.64102173 88.04246521 C28.65408557 93.33741904 28.66057748 98.63236023 28.66503239 103.92732763 C28.6679695 107.23521563 28.67207523 110.54310021 28.67653656 113.85098648 C28.69018818 124.20131058 28.69986939 134.55162683 28.70373845 144.9019593 C28.70823037 156.85155588 28.72584038 168.80103872 28.75473905 180.7506007 C28.77631531 189.99236851 28.78644036 199.2341042 28.78777957 208.47589695 C28.7888294 213.99517457 28.79477656 219.51434492 28.81259918 225.03359604 C28.82901239 230.21616061 28.83126844 235.39853641 28.82246017 240.58111763 C28.82168649 242.485913 28.82607587 244.39071826 28.83591843 246.29548836 C28.84853714 248.8887794 28.84281691 251.48139126 28.83233643 254.07467651 C28.84442103 255.21380818 28.84442103 255.21380818 28.85674977 256.3759526 C28.80871922 261.43144097 28.80871922 261.43144097 27.10747814 263.89639568 C24.61026105 265.46725892 22.5177018 265.31887693 19.58813477 265.33374023 C18.38000626 265.34642441 17.17187775 265.35910858 15.92713928 265.37217712 C14.62087082 265.36924149 13.31460236 265.36630585 11.96875 265.36328125 C10.61498248 265.36784246 9.26121728 265.37314785 7.90745544 265.37916565 C5.07028802 265.3881006 2.23340201 265.38566988 -0.60375977 265.37573242 C-4.23681663 265.36424634 -7.86890101 265.38444498 -11.5018301 265.41364956 C-14.29773616 265.43201141 -17.0934092 265.43171919 -19.88936043 265.42601204 C-21.87910728 265.42578436 -23.86883219 265.44268576 -25.85850525 265.45982361 C-27.06978592 265.45044266 -28.28106659 265.44106171 -29.52905273 265.43139648 C-30.59478012 265.43123032 -31.66050751 265.43106415 -32.75852966 265.43089294 C-36.24432543 264.80167624 -37.42221322 263.73107367 -39.53515625 260.9296875 C-39.93620586 258.19208801 -40.14006535 255.79207313 -40.16015625 253.0546875 C-40.25364271 248.01576724 -40.67585068 243.67463532 -42.53515625 238.9296875 C-47.08817483 239.4618585 -50.16341945 241.44726975 -53.84765625 243.9921875 C-82.20423919 262.80841442 -112.75638428 268.5246979 -146.09033203 262.43017578 C-165.4990479 258.45695154 -181.46534119 247.89493101 -193.01953125 231.87109375 C-209.53798658 206.62510404 -210.45218192 171.21868354 -205.07861328 142.48876953 C-200.65997007 121.3633255 -190.79716561 101.05399074 -172.37890625 88.8359375 C-152.37055377 76.46265301 -129.86421089 74.50193818 -106.86328125 74.41796875 C-105.07581404 74.40105718 -103.28835825 74.3828987 -101.50091553 74.36357117 C-96.87176085 74.31676637 -92.24265236 74.28651311 -87.61334229 74.26013184 C-82.85932269 74.22996843 -78.10546178 74.18356468 -73.3515625 74.13867188 C-64.07951131 74.05343358 -54.80742671 73.98574223 -45.53515625 73.9296875 C-45.51479042 71.54292504 -45.49997106 69.15633917 -45.48828125 66.76953125 C-45.48199707 66.09966187 -45.47571289 65.42979248 -45.46923828 64.73962402 C-45.43856664 56.37393437 -46.49154383 47.86838507 -51.53515625 40.9296875 C-59.39304817 33.22895342 -67.94502291 31.47978917 -78.56933594 31.54492188 C-79.64672531 31.5395491 -80.72411469 31.53417633 -81.83415222 31.52864075 C-84.16124432 31.51889486 -86.48837263 31.5159089 -88.81548309 31.51899719 C-92.49713945 31.52348641 -96.17831807 31.5094452 -99.85992432 31.49060059 C-108.99706663 31.44764379 -118.13419771 31.43654903 -127.27142334 31.42437744 C-135.00603675 31.41286354 -142.7404309 31.38935614 -150.4749527 31.34968567 C-154.10454938 31.33608729 -157.73385208 31.34029027 -161.36346436 31.34509277 C-163.58183166 31.33575602 -165.80019568 31.32558818 -168.01855469 31.31445312 C-169.0295372 31.32060135 -170.04051971 31.32674957 -171.08213806 31.33308411 C-172.01004654 31.32488144 -172.93795502 31.31667877 -173.89398193 31.30822754 C-175.10069361 31.30715878 -175.10069361 31.30715878 -176.33178329 31.30606842 C-179.09875859 30.83341276 -180.49007688 29.82193989 -182.53515625 27.9296875 C-183.04309082 25.7668457 -183.04309082 25.7668457 -183.05273438 23.23046875 C-183.06534302 22.27938232 -183.07795166 21.3282959 -183.09094238 20.34838867 C-183.08284546 19.32334229 -183.07474854 18.2982959 -183.06640625 17.2421875 C-183.07023315 16.18813721 -183.07406006 15.13408691 -183.07800293 14.0480957 C-183.08072576 11.81883795 -183.07333873 9.58954844 -183.05664062 7.36035156 C-183.03523734 3.94263673 -183.05643088 0.52702423 -183.08203125 -2.890625 C-183.07938804 -5.05469215 -183.07426321 -7.218758 -183.06640625 -9.3828125 C-183.07450317 -10.40785889 -183.0826001 -11.43290527 -183.09094238 -12.48901367 C-183.07833374 -13.4401001 -183.0657251 -14.39118652 -183.05273438 -15.37109375 C-183.04796082 -16.62660034 -183.04796082 -16.62660034 -183.04309082 -17.9074707 C-182.53515625 -20.0703125 -182.53515625 -20.0703125 -180.70124817 -21.82176208 C-177.69052755 -23.55716234 -175.02647046 -23.7835331 -171.578125 -24.16796875 C-170.89150284 -24.24722092 -170.20488068 -24.32647308 -169.49745178 -24.40812683 C-167.24048942 -24.66376154 -164.98202245 -24.89944461 -162.72265625 -25.1328125 C-161.13833688 -25.30362308 -159.5540271 -25.47452268 -157.96972656 -25.64550781 C-106.31112429 -31.1136748 -42.04443318 -37.3702392 0 0 Z M-128.29296875 135.90234375 C-138.57312636 151.61629896 -141.69963756 171.55643314 -137.9296875 189.87109375 C-135.96423219 197.15739494 -132.84701956 202.55993597 -126.53515625 206.9296875 C-109.23630088 212.69597262 -86.95448366 204.56806196 -71.43798828 196.88427734 C-70.81005371 196.5692627 -70.18211914 196.25424805 -69.53515625 195.9296875 C-68.87757324 195.60564941 -68.21999023 195.28161133 -67.54248047 194.94775391 C-54.21119887 188.98946104 -54.21119887 188.98946104 -44.53515625 178.9296875 C-44.42577064 177.50117613 -44.37616728 176.06783392 -44.3581543 174.63525391 C-44.34531906 173.7473819 -44.33248383 172.85950989 -44.31925964 171.94473267 C-44.31187271 170.98328339 -44.30448578 170.02183411 -44.296875 169.03125 C-44.28476738 167.55149185 -44.28476738 167.55149185 -44.27241516 166.0418396 C-44.25857087 163.95206462 -44.24785027 161.86226699 -44.23999023 159.77246094 C-44.22276263 156.57443534 -44.17887765 153.37743945 -44.13476562 150.1796875 C-44.12464016 148.15104928 -44.1161236 146.12240226 -44.109375 144.09375 C-44.08311287 142.65764877 -44.08311287 142.65764877 -44.05632019 141.1925354 C-44.05924576 140.29835907 -44.06217133 139.40418274 -44.06518555 138.48291016 C-44.05638618 137.30615219 -44.05638618 137.30615219 -44.04740906 136.10562134 C-44.75566636 132.94594957 -45.92802235 131.82345518 -48.53515625 129.9296875 C-51.7978891 129.32318895 -51.7978891 129.32318895 -55.50341797 129.41210938 C-56.1966214 129.4051001 -56.88982483 129.39809082 -57.60403442 129.39086914 C-59.89138073 129.37329119 -62.17748525 129.38491241 -64.46484375 129.3984375 C-66.05901323 129.39574188 -67.65318111 129.39185888 -69.24734497 129.38684082 C-72.58807025 129.38094557 -75.92836749 129.38950686 -79.26904297 129.40820312 C-83.54194799 129.4309562 -87.81384598 129.41789371 -92.08671379 129.39391327 C-95.37939977 129.37942407 -98.67184908 129.3840761 -101.96454239 129.39442444 C-103.53933965 129.39708505 -105.11415869 129.39384542 -106.68893051 129.38450623 C-108.89589631 129.37429262 -111.10125843 129.38990725 -113.30810547 129.41210938 C-114.56178925 129.41529175 -115.81547302 129.41847412 -117.10714722 129.42175293 C-121.94007808 130.13785742 -125.06919756 132.28455608 -128.29296875 135.90234375 Z " fill="#061212" transform="translate(2396.53515625,265.0703125)"/>
<path d="M0 0 C0.64839844 0.46535156 1.29679687 0.93070312 1.96484375 1.41015625 C19.91438727 15.22074621 28.33337797 38.4295572 31.57321739 60.04206467 C32.42765375 67.96601419 32.2863206 75.9180561 32.2746582 83.87939453 C32.27901312 85.85671683 32.28419885 87.83403744 32.29014587 89.81135559 C32.30345225 95.14328104 32.30412473 100.47513527 32.30158257 105.80707407 C32.30050878 110.26364293 32.3054058 114.72019761 32.310188 119.17676342 C32.32125068 129.68198081 32.32173657 140.18716242 32.31567383 150.69238281 C32.3096138 161.53363533 32.32200375 172.37475873 32.3432439 183.21598923 C32.3608295 192.5342762 32.36686672 201.85252192 32.36360615 211.17082489 C32.36179087 216.73251167 32.36445546 222.29410599 32.37832069 227.85577774 C32.39084759 233.07452088 32.38900399 238.29306093 32.37590981 243.51180077 C32.37353454 245.42949554 32.37631245 247.34720441 32.38453293 249.26488304 C32.39492048 251.87548719 32.38696522 254.4853993 32.3742218 257.09597778 C32.38159609 257.86045231 32.38897037 258.62492684 32.39656812 259.41256726 C32.34404235 264.50088992 32.34404235 264.50088992 30.64221382 266.96977139 C28.14479077 268.5365081 26.05094485 268.38919914 23.12329102 268.40405273 C21.91516251 268.41673691 20.707034 268.42942108 19.46229553 268.44248962 C18.15602707 268.43955399 16.84975861 268.43661835 15.50390625 268.43359375 C14.15013873 268.43815496 12.79637353 268.44346035 11.44261169 268.44947815 C8.60544427 268.4584131 5.76855826 268.45598238 2.93139648 268.44604492 C-0.70166038 268.43455884 -4.33374476 268.45475748 -7.96667385 268.48396206 C-10.76257991 268.50232391 -13.55825295 268.50203169 -16.35420418 268.49632454 C-18.34395103 268.49609686 -20.33367594 268.51299826 -22.323349 268.53013611 C-23.53462967 268.52075516 -24.74591034 268.51137421 -25.99389648 268.50170898 C-27.05962387 268.50154282 -28.12535126 268.50137665 -29.22337341 268.50120544 C-32.67711672 267.87777449 -33.85547345 266.72222954 -36 264 C-36.51416016 261.84936523 -36.51416016 261.84936523 -36.5390625 259.55859375 C-36.56226562 258.72779297 -36.58546875 257.89699219 -36.609375 257.04101562 C-36.61453125 256.18185547 -36.6196875 255.32269531 -36.625 254.4375 C-36.65053816 252.72772014 -36.68405889 251.018036 -36.7265625 249.30859375 C-36.73252441 248.55376709 -36.73848633 247.79894043 -36.74462891 247.02124023 C-36.88697509 244.6863382 -36.88697509 244.6863382 -39 242 C-43.79830372 242.49606523 -46.94486657 244.82588999 -50.75 247.5625 C-78.27467091 266.52704599 -109.96777368 271.45851774 -142.55517578 265.50048828 C-160.83131165 261.75911835 -176.74681487 252.16639309 -187.875 237.125 C-205.59997962 209.63407287 -207.06614964 173.46753484 -200.78271484 142.15942383 C-197.81909387 128.94315148 -192.45113421 116.62824138 -184 106 C-183.54238281 105.37996094 -183.08476562 104.75992188 -182.61328125 104.12109375 C-169.88609417 87.82008336 -148.31874065 81.1195676 -128.62770844 78.66158485 C-120.15333614 77.68790985 -111.67676377 77.64475434 -103.15625 77.5859375 C-101.40790959 77.56716987 -99.6595777 77.5475926 -97.91125488 77.5272522 C-93.36754446 77.47651461 -88.82380485 77.43658155 -84.27996826 77.39910889 C-79.6201694 77.35869743 -74.96048574 77.30777708 -70.30078125 77.2578125 C-61.20060244 77.16174706 -52.10035769 77.07712656 -43 77 C-39.60353536 70.20707072 -41.7394454 58.35963477 -43.97265625 51.43359375 C-47.14235994 43.92513215 -51.35782162 40.25106394 -58.73046875 36.91015625 C-62.17658568 35.52815067 -64.85702646 34.87360748 -68.5478363 34.86196899 C-69.48015076 34.85651566 -70.41246521 34.85106232 -71.37303162 34.84544373 C-72.39389359 34.8444014 -73.41475555 34.84335907 -74.46655273 34.84228516 C-75.54321198 34.83720444 -76.61987122 34.83212372 -77.72915649 34.82688904 C-80.06998821 34.8161793 -82.4108302 34.8075615 -84.75167656 34.80076981 C-88.45381432 34.78899821 -92.15583452 34.76955072 -95.85792542 34.74765015 C-106.38482061 34.68596827 -116.9116987 34.63193395 -127.4387207 34.59863281 C-133.87429404 34.57772424 -140.30965283 34.5424531 -146.74510384 34.49787521 C-149.20071963 34.48368625 -151.65637338 34.47498628 -154.11202812 34.47182083 C-157.54293251 34.46692934 -160.97326412 34.44381681 -164.40405273 34.41650391 C-165.93230934 34.42101311 -165.93230934 34.42101311 -167.49143982 34.4256134 C-168.89414124 34.40897392 -168.89414124 34.40897392 -170.32518005 34.39199829 C-171.1361486 34.38868814 -171.94711714 34.385378 -172.78266048 34.38196754 C-175.55571202 33.90427088 -176.9502779 32.89784967 -179 31 C-179.50793457 28.8371582 -179.50793457 28.8371582 -179.51757812 26.30078125 C-179.53018677 25.34969482 -179.54279541 24.3986084 -179.55578613 23.41870117 C-179.54768921 22.39365479 -179.53959229 21.3686084 -179.53125 20.3125 C-179.5350769 19.25844971 -179.53890381 18.20439941 -179.54284668 17.1184082 C-179.54556951 14.88915045 -179.53818248 12.65986094 -179.52148438 10.43066406 C-179.50008109 7.01294923 -179.52127463 3.59733673 -179.546875 0.1796875 C-179.54423179 -1.98437965 -179.53910696 -4.1484455 -179.53125 -6.3125 C-179.53934692 -7.33754639 -179.54744385 -8.36259277 -179.55578613 -9.41870117 C-179.54317749 -10.3697876 -179.53056885 -11.32087402 -179.51757812 -12.30078125 C-179.51280457 -13.55628784 -179.51280457 -13.55628784 -179.50793457 -14.8371582 C-179 -17 -179 -17 -177.1651001 -18.75144958 C-174.1642941 -20.48192735 -171.5156132 -20.71246665 -168.078125 -21.09765625 C-167.05222511 -21.2165345 -167.05222511 -21.2165345 -166.00559998 -21.33781433 C-163.75504926 -21.59357057 -161.5029848 -21.82922528 -159.25 -22.0625 C-157.66902431 -22.23337642 -156.08805104 -22.40427516 -154.50708008 -22.57519531 C-103.21435089 -28.00617872 -43.40679284 -33.42386231 0 0 Z M-124.7578125 138.97265625 C-134.7328733 154.22024919 -137.38142578 173.22169496 -134.67919922 191.12548828 C-133.27905349 197.77915773 -131.06844538 203.4142637 -126 208 C-121.41113958 210.77605988 -117.52844349 211.51506985 -112.25 211.4375 C-111.51410645 211.42992676 -110.77821289 211.42235352 -110.02001953 211.41455078 C-86.80644022 210.74204912 -59.86513642 199.77117425 -42 185 C-40.81344717 182.62689434 -40.86087661 181.15400279 -40.83886719 178.50610352 C-40.82925964 177.57496231 -40.8196521 176.64382111 -40.80975342 175.6844635 C-40.80550354 174.67612961 -40.80125366 173.66779572 -40.796875 172.62890625 C-40.79117493 171.59563705 -40.78547485 170.56236786 -40.77960205 169.49778748 C-40.77014547 167.30965196 -40.76361546 165.12150217 -40.75976562 162.93334961 C-40.75004973 159.57966413 -40.71902797 156.22658869 -40.6875 152.87304688 C-40.68097116 150.75000365 -40.67572022 148.62695603 -40.671875 146.50390625 C-40.6533548 144.99444176 -40.6533548 144.99444176 -40.63446045 143.45448303 C-40.63746155 142.52018967 -40.64046265 141.5858963 -40.64355469 140.62329102 C-40.63990906 139.80103531 -40.63626343 138.9787796 -40.63250732 138.13160706 C-40.86939011 135.96644453 -40.86939011 135.96644453 -42.08811951 134.23629761 C-45.00624359 132.34932306 -47.49683623 132.6105994 -50.9465332 132.59594727 C-51.64934418 132.58908401 -52.35215515 132.58222076 -53.07626343 132.57514954 C-55.4013079 132.55683848 -57.72568008 132.56072609 -60.05078125 132.56640625 C-61.66880005 132.56184528 -63.2868169 132.55653995 -64.90483093 132.55052185 C-68.29853169 132.54158142 -71.69199728 132.54402292 -75.08569336 132.55395508 C-79.42696791 132.56542436 -83.76742659 132.54527008 -88.10859394 132.51603794 C-91.45187003 132.49765317 -94.79495164 132.49797326 -98.13826561 132.50367546 C-99.73819304 132.50382852 -101.33813379 132.49779727 -102.93801308 132.48538399 C-105.18094929 132.47043839 -107.42239241 132.48117641 -109.6652832 132.49829102 C-110.93974808 132.49845718 -112.21421295 132.49862335 -113.52729797 132.49879456 C-118.39340941 133.20110691 -121.51400798 135.33238673 -124.7578125 138.97265625 Z " fill="#061212" transform="translate(2916,262)"/>
<path d="M0 0 C1.22851685 0.00193863 2.45703369 0.00387726 3.72277832 0.00587463 C21.1953399 0.10207239 38.65432629 0.82248326 56.1126709 1.48474121 C60.78067811 1.66036517 65.44894882 1.82870834 70.1171875 1.99804688 C77.97816846 2.28356949 85.83828643 2.58724527 93.69819641 2.90076256 C98.32049161 3.08184149 102.94169615 3.22434261 107.56640625 3.33251953 C108.56595337 3.36185074 109.56550049 3.39118195 110.59533691 3.42140198 C112.32664491 3.47148266 114.05845959 3.50745537 115.79040527 3.52476501 C120.9584759 3.69750255 120.9584759 3.69750255 123.09622192 5.86898804 C124.63799487 8.55627096 124.78614725 10.15727769 124.79443359 13.24047852 C124.80389008 14.25155167 124.81334656 15.26262482 124.8230896 16.30433655 C124.81398056 17.93259621 124.81398056 17.93259621 124.8046875 19.59375 C124.80899277 21.27258522 124.80899277 21.27258522 124.81338501 22.9853363 C124.81542551 25.34984849 124.80989671 27.71437757 124.79736328 30.07885742 C124.78129519 33.70464657 124.79722106 37.32932346 124.81640625 40.95507812 C124.81442411 43.25130455 124.81058105 45.54753028 124.8046875 47.84375 C124.81076019 48.93128067 124.81683289 50.01881134 124.8230896 51.13929749 C124.80890488 52.65117897 124.80890488 52.65117897 124.79443359 54.19360352 C124.79204681 55.08088638 124.78966003 55.96816925 124.78720093 56.88233948 C124.31199435 59.7139928 123.67461004 60.42447029 121.40625 62.15234375 C118.96228123 62.52872467 118.96228123 62.52872467 116.00111389 62.53088379 C114.87842102 62.53908646 113.75572815 62.54728912 112.59901428 62.55574036 C111.36630295 62.54959213 110.13359161 62.54344391 108.86352539 62.53710938 C106.87106188 62.54535739 104.87859838 62.55360613 102.88613498 62.56188202 C100.74218391 62.56788651 98.59834903 62.56649553 96.45439339 62.56303406 C91.97709841 62.55622173 87.5000598 62.57210062 83.02281189 62.59143066 C73.50480516 62.62931906 63.98682053 62.64207023 54.46875 62.65234375 C44.2233503 62.6634287 33.9780691 62.67898973 23.73274988 62.72305632 C19.29279367 62.74130409 14.85313069 62.74534322 10.41314614 62.73812103 C8.30681844 62.73695785 6.20063849 62.74264794 4.09432983 62.751297 C1.54065539 62.76174129 -1.01309413 62.76187475 -3.5667572 62.74894714 C-15.84032158 62.52960121 -15.84032158 62.52960121 -26.59375 67.15234375 C-26.88522197 71.78195176 -26.90781942 76.41434048 -26.94384766 81.05224609 C-26.96037495 82.61196853 -26.9876229 84.17161624 -27.02587891 85.73095703 C-27.08080932 87.98119336 -27.10254656 90.22965113 -27.1171875 92.48046875 C-27.15119156 93.5198056 -27.15119156 93.5198056 -27.18588257 94.58013916 C-27.17083715 98.04887784 -26.6991578 99.99642165 -24.74853516 102.88183594 C-16.63207665 108.72327411 -6.70930819 110.1364048 2.95225525 111.82998466 C5.18639788 112.22170255 7.41806512 112.62559579 9.64953613 113.03224182 C14.39986338 113.89557243 19.15292379 114.74320883 23.90625 115.58984375 C102.0151171 129.52929692 102.0151171 129.52929692 121.625 155.48828125 C130.26606713 168.41198254 133.53085219 182.08153872 133.609375 197.4609375 C133.61507507 198.34531998 133.62077515 199.22970245 133.62664795 200.1408844 C133.63605776 202.00919414 133.64261586 203.87752018 133.64648438 205.74584961 C133.65611414 208.55027806 133.68714442 211.35394856 133.71875 214.15820312 C133.83827231 234.39533587 131.27478168 253.36026572 117.40625 269.15234375 C97.19152359 289.14317288 66.899679 293.61121746 39.64569092 293.48623657 C37.75857725 293.46688383 35.87147188 293.44670748 33.984375 293.42578125 C31.94932413 293.4138585 29.91426931 293.4025953 27.87921143 293.39193726 C5.87152223 293.24240779 -16.12951903 292.65473102 -38.12646484 291.98046875 C-43.84276209 291.80546833 -49.55938894 291.64601066 -55.27623367 291.49006081 C-59.74064636 291.36631412 -64.2047658 291.23380755 -68.66884613 291.09864426 C-70.78192362 291.03589957 -72.89509106 290.97610881 -75.00833893 290.91939163 C-77.91510075 290.8402874 -80.82123874 290.74916341 -83.72753906 290.65478516 C-84.58733871 290.63392349 -85.44713837 290.61306183 -86.33299255 290.59156799 C-90.22281965 290.45304519 -92.28787393 290.35626113 -95.59375 288.15234375 C-96.56628324 285.23474404 -96.73101699 283.3246137 -96.75488281 280.28540039 C-96.76449036 279.29750015 -96.7740979 278.30959991 -96.78399658 277.29176331 C-96.78824646 276.22610641 -96.79249634 275.16044952 -96.796875 274.0625 C-96.80257507 272.96642929 -96.80827515 271.87035858 -96.81414795 270.74107361 C-96.8235971 268.42187465 -96.83013159 266.10266227 -96.83398438 263.78344727 C-96.8437021 260.23234753 -96.87473184 256.68182355 -96.90625 253.13085938 C-96.91277887 250.87890969 -96.9180298 248.62695587 -96.921875 246.375 C-96.9342218 245.31136734 -96.9465686 244.24773468 -96.95928955 243.15187073 C-96.95628845 242.16081833 -96.95328735 241.16976593 -96.95019531 240.14868164 C-96.95384094 239.27836807 -96.95748657 238.4080545 -96.96124268 237.5113678 C-96.49922105 234.54553964 -95.66831908 233.3134003 -93.59375 231.15234375 C-91.20501328 230.66573906 -91.20501328 230.66573906 -88.32269287 230.68478394 C-87.22957794 230.6821756 -86.13646301 230.67956726 -85.01022339 230.67687988 C-83.8102774 230.69440308 -82.61033142 230.71192627 -81.37402344 230.72998047 C-80.11020844 230.73260895 -78.84639343 230.73523743 -77.54428101 230.73794556 C-74.79237509 230.74381707 -72.04094358 230.76232854 -69.28917694 230.79055405 C-64.92458182 230.83515833 -60.56016223 230.8512817 -56.19537354 230.86355591 C-49.27522056 230.88634161 -42.35532664 230.92778256 -35.43531823 230.97735131 C-23.08878846 231.06569661 -10.74217976 231.13272387 1.6045835 231.1778394 C5.92882892 231.19450077 10.25280387 231.22271814 14.57692218 231.25949538 C37.71246931 232.50458529 37.71246931 232.50458529 59.40625 226.15234375 C61.59687416 221.77109544 60.67457802 215.89903031 60.70141602 211.03149414 C60.71860449 208.85824136 60.76248807 206.68652029 60.80664062 204.51367188 C60.81677026 203.12631325 60.82528552 201.73894171 60.83203125 200.3515625 C60.84661377 199.09174561 60.86119629 197.83192871 60.8762207 196.53393555 C60.29778296 192.37188816 59.51667778 190.97349905 56.40625 188.15234375 C50.07920773 184.39683166 43.19087366 183.02686467 36.03515625 181.71484375 C34.95246964 181.50730469 33.86978302 181.29976562 32.75428772 181.0859375 C29.30715257 180.42894278 25.85723659 179.78877409 22.40625 179.15234375 C20.15999073 178.73438981 17.9137342 178.31642117 15.66748047 177.8984375 C3.77900608 175.69515768 3.77900608 175.69515768 -8.1159668 173.52734375 C-37.46308768 168.21452079 -70.03695565 160.78632788 -88.34375 134.90234375 C-96.32552672 123.14646345 -99.90899699 111.08125898 -99.89453125 96.9921875 C-99.89881638 96.04404678 -99.9031015 95.09590607 -99.90751648 94.11903381 C-99.91322803 92.12143751 -99.91378364 90.12382042 -99.90942383 88.1262207 C-99.9062838 85.12218234 -99.92969431 82.11915 -99.95507812 79.11523438 C-100.02446327 58.65169317 -98.03185991 39.80664653 -83.01953125 24.390625 C-60.74854615 3.8410687 -29.16900717 -0.07676745 0 0 Z " fill="#061212" transform="translate(1758.59375,235.84765625)"/>
<path d="M0 0 C0.658862 -0.00525696 1.317724 -0.01051392 1.99655151 -0.01593018 C4.17372365 -0.02913053 6.35016422 -0.02039267 8.52734375 -0.01025391 C10.04044739 -0.01227465 11.55355008 -0.01518609 13.06665039 -0.01895142 C16.23756179 -0.02337479 19.40821964 -0.01694352 22.57910156 -0.00292969 C26.64480267 0.01416249 30.70990968 0.00432134 34.77558899 -0.01364708 C37.89998862 -0.02448472 41.02424726 -0.02103873 44.14865112 -0.0132637 C45.647777 -0.01126163 47.14691565 -0.01372125 48.64602661 -0.02070236 C50.74092541 -0.02831687 52.83486053 -0.0167143 54.9296875 0 C56.12198975 0.00238678 57.31429199 0.00477356 58.54272461 0.00723267 C61.46484375 0.38818359 61.46484375 0.38818359 63.1237064 1.61045939 C64.87933614 3.93760767 64.84171123 5.31192048 64.84516048 8.21272182 C64.85360043 9.21247931 64.86204037 10.21223679 64.87073606 11.24228996 C64.86472602 12.34363417 64.85871597 13.44497838 64.8525238 14.57969666 C64.85790934 15.74733364 64.86329488 16.91497063 64.86884362 18.11799055 C64.88070232 21.36444813 64.87903882 24.61057851 64.8716768 27.85703933 C64.86695916 31.35609781 64.8794425 34.85510047 64.88969421 38.35414124 C64.90691531 45.21118055 64.90771538 52.06812837 64.90248131 58.92518371 C64.89844447 64.49717034 64.89987737 70.06912986 64.90522957 75.64111519 C64.90597799 76.43330714 64.90672641 77.2254991 64.90749751 78.04169687 C64.90902895 79.65089135 64.91056729 81.26008582 64.91211248 82.86928029 C64.92584953 97.96977247 64.92039141 113.07021288 64.90892727 128.1707039 C64.89899388 141.99329597 64.91193522 155.8157542 64.93586146 169.63832562 C64.96022891 183.82236952 64.96986612 198.00635102 64.96320873 212.19041544 C64.95971123 220.15729162 64.96198347 228.12406483 64.97945976 236.09092522 C64.99415239 242.87310247 64.99485592 249.65510426 64.97738885 256.43727797 C64.96885196 259.8990848 64.96679412 263.36057782 64.98204041 266.82236862 C64.99514327 270.57177489 64.98379684 274.32031862 64.96604919 278.06968689 C64.9756542 279.16880038 64.98525921 280.26791386 64.99515527 281.40033382 C64.98043384 282.90388167 64.98043384 282.90388167 64.965415 284.43780422 C64.96530766 285.30345924 64.96520033 286.16911425 64.96508974 287.06100124 C64.29037296 290.19983497 62.94185287 291.41032691 60.46484375 293.38818359 C57.46043396 293.88938904 57.46043396 293.88938904 53.90795898 293.88989258 C52.9340773 293.89799706 52.9340773 293.89799706 51.94052124 293.90626526 C49.80102525 293.91874174 47.66287775 293.90227293 45.5234375 293.88427734 C44.03418406 293.88443234 42.5449302 293.88592144 41.05567932 293.88868713 C37.93773522 293.89007056 34.82025146 293.87752175 31.70239258 293.85473633 C27.70507116 293.82632659 23.70851305 293.82909615 19.71113491 293.84182644 C16.63732883 293.84877907 13.56369938 293.84099963 10.48991585 293.82856941 C9.01591735 293.82405256 7.54189992 293.82372016 6.0678997 293.82763481 C4.00898179 293.83054375 1.95111863 293.81405858 -0.10766602 293.79223633 C-1.27918716 293.78683334 -2.45070831 293.78143036 -3.6577301 293.77586365 C-6.53515625 293.38818359 -6.53515625 293.38818359 -8.19140017 292.1666379 C-9.95363153 289.8343337 -9.9110495 288.45401396 -9.91267967 285.54523468 C-9.92050291 284.5413771 -9.92832616 283.53751952 -9.93638647 282.50324202 C-9.92634822 280.8443661 -9.92634822 280.8443661 -9.91610718 279.15197754 C-9.92078715 277.97955143 -9.92546712 276.80712533 -9.93028891 275.59917116 C-9.94020692 272.33937558 -9.9366072 269.07991326 -9.92733026 265.82012582 C-9.92055946 262.30677755 -9.93101117 258.79347531 -9.93927002 255.28013611 C-9.95263068 248.39535212 -9.94971927 241.51066609 -9.9410321 234.62587821 C-9.93426511 229.03195444 -9.93333455 223.43805816 -9.93660355 217.84413147 C-9.93706325 217.04887543 -9.93752294 216.25361939 -9.93799657 215.43426469 C-9.93895572 213.81886748 -9.93992836 212.20347027 -9.94091435 210.58807307 C-9.94947507 195.42990369 -9.93962342 180.27178868 -9.92351325 165.11362821 C-9.91010944 152.09883688 -9.91243734 139.08412582 -9.92626953 126.06933594 C-9.94231331 110.96650924 -9.94865104 95.86373023 -9.93943274 80.76089621 C-9.93847706 79.15134272 -9.93753395 77.54178922 -9.93660355 75.93223572 C-9.93614072 75.14024317 -9.93567789 74.34825062 -9.93520104 73.5322583 C-9.93260754 67.94312986 -9.93698989 62.3540316 -9.94404221 56.76490784 C-9.95244408 49.95637266 -9.95020485 43.14794129 -9.93419997 36.33941805 C-9.92629945 32.86361007 -9.92325572 29.38797532 -9.93314743 25.9121685 C-9.94129197 22.1494003 -9.93112689 18.387126 -9.91610718 14.62438965 C-9.92279934 13.51847237 -9.92949151 12.41255509 -9.93638647 11.27312517 C-9.92856322 10.26926759 -9.92073998 9.26541001 -9.91267967 8.23113251 C-9.91219262 7.36206001 -9.91170556 6.49298751 -9.91120374 5.59757948 C-8.94898976 -0.05572673 -4.98440287 0.0099779 0 0 Z " fill="#061212" transform="translate(2993.53515625,235.61181640625)"/>
<path d="M0 0 C1.93220398 -0.01879967 1.93220398 -0.01879967 3.90344238 -0.03797913 C5.30608124 -0.02571081 6.70871044 -0.01229079 8.11132812 0.00219727 C9.55334655 0.00136836 10.99536487 -0.00109185 12.43737793 -0.00511169 C15.45707701 -0.00796828 18.47603378 0.00671608 21.49560547 0.03417969 C25.36297764 0.06826376 29.22902272 0.06224381 33.09645844 0.04351711 C36.0734154 0.03293966 39.05006445 0.04189139 42.0269928 0.05690193 C43.45271388 0.06207884 44.87846718 0.06160786 46.30418396 0.05535698 C48.29788377 0.04989694 50.29159961 0.07314748 52.28515625 0.09765625 C53.418927 0.10385483 54.55269775 0.11005341 55.7208252 0.11643982 C59.3055768 0.74789003 60.48301176 1.74267749 62.64257812 4.63110352 C63.36127855 8.55128767 63.7379467 11.01269719 61.46565247 14.37001038 C55.70528564 20.67326746 49.69719011 26.72183821 43.65429688 32.75219727 C42.50309413 33.90407486 41.35203975 35.05610076 40.2011261 36.20826721 C37.80489258 38.60596565 35.40688308 41.00186933 33.00756836 43.39648438 C29.92958496 46.46873234 26.85616527 49.54550072 23.78402996 52.62359524 C21.41558471 54.99564584 19.04477319 57.36531982 16.67322731 59.7342701 C15.53816105 60.86866902 14.40383788 62.00381197 13.27026939 63.13970757 C11.69324284 64.71926436 10.11306301 66.29559634 8.53198242 67.87109375 C7.18465279 69.21723 7.18465279 69.21723 5.81010437 70.59056091 C3.05470501 73.18453632 2.13391897 73.57548002 -1.66992188 74.00610352 C-5.26148727 73.64085958 -6.88536879 73.2480412 -9.33175659 70.59912109 C-11.83462353 65.7966907 -11.04310164 59.82789555 -10.98632812 54.53735352 C-10.98715742 53.1440004 -10.9896191 51.75064738 -10.99363708 50.3572998 C-10.9964908 47.44191928 -10.9818377 44.52730883 -10.9543457 41.61206055 C-10.92026191 37.8826834 -10.9262842 34.15468261 -10.94500828 30.42523956 C-10.95559756 27.54946503 -10.94662332 24.67400854 -10.93162346 21.79826355 C-10.92645521 20.42360886 -10.92690696 19.04892077 -10.93316841 17.67427063 C-10.93864278 15.75033251 -10.91534375 13.82637813 -10.89086914 11.90258789 C-10.88467056 10.80958374 -10.87847198 9.71657959 -10.87208557 8.5904541 C-9.71461216 1.93490475 -6.45416694 0.00547498 0 0 Z " fill="#091515" transform="translate(2994.357421875,130.368896484375)"/>
<path d="M0 0 C0.66 0.33 1.32 0.66 2 1 C-3.28 6.28 -8.56 11.56 -14 17 C-14.66 16.67 -15.32 16.34 -16 16 C-14.08743854 13.89197235 -12.17019745 11.78855326 -10.25 9.6875 C-9.71117187 9.09259766 -9.17234375 8.49769531 -8.6171875 7.88476562 C-5.91859521 4.93935086 -3.3371486 2.24366544 0 0 Z " fill="#575F5F" transform="translate(2016,245)"/>
<path d="M0 0 C0.66 0.33 1.32 0.66 2 1 C-2.29 5.29 -6.58 9.58 -11 14 C-11.66 13.67 -12.32 13.34 -13 13 C-4.738041 3.40546697 -4.738041 3.40546697 0 0 Z " fill="#575F5F" transform="translate(2221,356)"/>
<path d="M0 0 C0.66 0.33 1.32 0.66 2 1 C-1.96 4.96 -5.92 8.92 -10 13 C-10.66 12.67 -11.32 12.34 -12 12 C-8.32167983 7.47384007 -4.58913637 3.60575001 0 0 Z " fill="#586060" transform="translate(2744,356)"/>
</svg>
